<svg width="828" height="311" viewBox="0 0 828 311" fill="none" xmlns="http://www.w3.org/2000/svg">
<g filter="url(#filter0_d)">
<path d="M270 236.64H224.4V295.44H161.2V236.64H10.4V193.04L142.4 15.4399H210.4L88 183.84H163.2V131.44H224.4V183.84H270V236.64ZM409.381 300.24C386.181 300.24 365.515 294.507 347.381 283.04C329.248 271.573 314.981 255.04 304.581 233.44C294.448 211.573 289.381 185.573 289.381 155.44C289.381 125.307 294.448 99.4399 304.581 77.8399C314.981 55.9733 329.248 39.3066 347.381 27.8399C365.515 16.3733 386.181 10.6399 409.381 10.6399C432.581 10.6399 453.248 16.3733 471.381 27.8399C489.515 39.3066 503.648 55.9733 513.781 77.8399C524.181 99.4399 529.381 125.307 529.381 155.44C529.381 185.573 524.181 211.573 513.781 233.44C503.648 255.04 489.515 271.573 471.381 283.04C453.248 294.507 432.581 300.24 409.381 300.24ZM409.381 245.44C426.448 245.44 439.781 238.107 449.381 223.44C459.248 208.773 464.181 186.107 464.181 155.44C464.181 124.773 459.248 102.107 449.381 87.4399C439.781 72.7733 426.448 65.4399 409.381 65.4399C392.581 65.4399 379.248 72.7733 369.381 87.4399C359.781 102.107 354.981 124.773 354.981 155.44C354.981 186.107 359.781 208.773 369.381 223.44C379.248 238.107 392.581 245.44 409.381 245.44ZM817.266 236.64H771.666V295.44H708.466V236.64H557.666V193.04L689.666 15.4399H757.666L635.266 183.84H710.466V131.44H771.666V183.84H817.266V236.64Z" fill="#C1E7AB"/>
</g>
<defs>
<filter id="filter0_d" x="0.399902" y="0.639893" width="826.866" height="309.6" filterUnits="userSpaceOnUse" color-interpolation-filters="sRGB">
<feFlood flood-opacity="0" result="BackgroundImageFix"/>
<feColorMatrix in="SourceAlpha" type="matrix" values="0 0 0 0 0 0 0 0 0 0 0 0 0 0 0 0 0 0 127 0"/>
<feOffset/>
<feGaussianBlur stdDeviation="5"/>
<feColorMatrix type="matrix" values="0 0 0 0 0 0 0 0 0 0 0 0 0 0 0 0 0 0 0.25 0"/>
<feBlend mode="normal" in2="BackgroundImageFix" result="effect1_dropShadow"/>
<feBlend mode="normal" in="SourceGraphic" in2="effect1_dropShadow" result="shape"/>
</filter>
</defs>
</svg>
