<svg width="33" height="35" fill="none" xmlns="http://www.w3.org/2000/svg"><path d="M25.257 23.127c-1.085-1.07-2.44-1.07-3.519 0-.822.814-1.645 1.63-2.454 2.458-.221.228-.408.276-.677.124-.533-.29-1.1-.525-1.611-.842-2.385-1.499-4.383-3.425-6.153-5.594-.878-1.077-1.659-2.23-2.205-3.529-.11-.262-.09-.435.124-.649.823-.794 1.625-1.609 2.434-2.424 1.127-1.132 1.127-2.458-.007-3.598-.643-.649-1.286-1.284-1.929-1.933-.664-.663-1.32-1.333-1.991-1.99-1.085-1.056-2.44-1.056-3.519.008-.83.815-1.624 1.65-2.468 2.451-.78.74-1.175 1.644-1.258 2.7-.131 1.72.29 3.343.885 4.924 1.217 3.274 3.07 6.18 5.316 8.846 3.035 3.605 6.658 6.457 10.895 8.515 1.908.926 3.885 1.637 6.035 1.754 1.48.083 2.766-.29 3.796-1.443.705-.787 1.5-1.505 2.247-2.258 1.106-1.119 1.113-2.472.013-3.577-1.313-1.32-2.634-2.631-3.954-3.944zm-1.039-4.588l2.367-.49c-.372-2.639-1.398-5.028-2.957-6.928-1.65-2-3.735-3.26-6.032-3.65l-.333 2.888c1.777.303 3.394 1.276 4.67 2.825 1.207 1.463 1.996 3.316 2.285 5.355zm3.703-12.484C25.188 2.739 21.729.645 17.911 0l-.333 2.887c3.298.56 6.288 2.374 8.65 5.23 2.238 2.717 3.708 6.149 4.24 9.924l2.368-.49c-.623-4.375-2.323-8.344-4.915-11.496z" fill="#C38E68"/></svg>