<svg xmlns="http://www.w3.org/2000/svg" viewBox="0 44.4 105.5 79"><path fill="#C1E7AB" d="M99.6 88.2c.8 4.6-.5 14.5 3.7 18.9 3 3.2-14 5.6-15.5 3.5-1.5-2.1-2.7-19.4-9-19.7-6.3-.3-75.6-2.4-75.3-3.5.2-.6 27-.4 52.8-1 16.2-.4 32-1.7 40.5-1.7.8 0 2.6 2.3 2.8 3.5z"/><path d="M30.5 102.8h-2.1c-.1-3.7-.3-6-.9-9.2H26c-.5 0-.7 0-.8.1s-.1.1-.2.1c-.1-.8-.2-1.1-.4-1.8h1.5c2 0 2.9 0 4.8-.1h.7c.1 0 .1-.1.2-.1.2.6.3.9.5 1.7-.2 0-.6-.1-1.3 0h-1.1c.3 3.2.5 5.5.6 9.3zm3.1-4.7c-.1-.6 0-1.3.1-1.8s.3-1 .6-1.4c.6-.9 1.5-1.3 2.6-1.3 1.2 0 2.2.3 3.1 1 .8.7 1.4 1.7 1.5 3.1.2 1.3-.1 2.5-.7 3.3-.7 1-1.7 1.4-2.9 1.5-1.2 0-2.2-.3-3-1.2-.8-.8-1.2-1.9-1.3-3.2zm1.8-.1c0 .4.1.7.2 1 .1.3.3.6.5.9.5.5 1 .8 1.7.7.6 0 1.1-.3 1.4-.8.3-.5.4-1.2.3-2-.1-.8-.4-1.4-.8-1.9-.5-.5-1-.7-1.7-.7s-1.1.3-1.4.8c-.2.7-.3 1.2-.2 2zm10 3.9v3.1c-.7 0-1.1 0-1.9.1.2-3.8-.1-7.5-1.2-11.4h1.8c0 .2.1.3.1.5.5-.4 1-.6 1.6-.6.6 0 1.1 0 1.6.2.5.1 1 .3 1.4.6 1 .6 1.6 1.7 1.8 3.1.2 1 0 1.8-.3 2.6-.3.7-.8 1.2-1.4 1.6-.5.4-1.2.5-1.8.6-.6-.1-1.2-.2-1.7-.4zm-.1-2.1c.4.3 1 .5 1.6.5 1 0 1.7-.6 1.8-1.7v-1.2c0-.4-.2-.8-.3-1-.1-.3-.3-.5-.4-.6-.2-.2-.3-.3-.5-.4-.2-.1-.3-.2-.5-.3-.3-.1-.6-.1-.9-.1-.3 0-.5.1-.8.2-.3.1-.5.3-.6.5.3 1.6.4 2.5.6 4.1z"/><path fill="#1C1C1C" d="M99.9 94.8s1.8.6 2 3.3c.1 2.6-1.2 3.3-1.2 3.3l-.8-6.6zm-28.8 15.1c7.3.2 13.2.3 14.7.3 4.2.1 13.4-.1 16.1-1 2.7-.8.8-2.6.8-2.6 3.8.8 4 5.8-1.8 6.6-3.7.6-16.2 0-30-.7.3-.7.4-1.7.2-2.6zm-35-1c3.9.3 12.7.5 22 .8-.3.7-.5 1.5-.4 2.3-3.7-.2-7.3-.4-10.7-.5-8.7-.3-18.1-1-26-1.6 0-.7-.1-1.3-.4-1.9 5.6.2 11.4.6 15.5.9zm-30.2-2.2c.7.1 2.5.3 5 .5-.2.5-.3 1.1-.4 1.7-4.7-.5-7.7-1-7.6-1.4.1-1.1.6-1.2 3-.8zm81-34.4s5 8.5 6 12.2h-2s-5.4-12-6.5-12.5c-1.3-.5 2.5.3 2.5.3zm-19.2.5l2.8 12.9h-1.4l-2.8-12.9h1.4zm-12 .5L54 86.1h-3l1.8-12.8h2.9zm-26.4 1l-2.7 12h-2.7l2.7-12h2.7z"/><path fill="#1C1C1C" d="M54.7 109.3c.5-1.8 3.4-8.3 10.4-7.6 7 .7 9.2 8.3 9.2 8.3 1 4.6-.8 12.5-10.1 12-9.5-.4-10-10.9-9.5-12.7zm9.5 8.3c5.3.3 6.3-4.2 5.7-6.9 0 0-1.3-4.3-5.2-4.7-4-.4-5.6 3.3-5.9 4.3-.1 1.1.1 7.1 5.4 7.3z"/><path fill="#1C1C1C" d="M66.4 111.5s-.4-1.5-1.7-1.6c-1.3-.1-1.9 1.1-2 1.5-.1.3 0 2.4 1.8 2.4 1.7 0 2-1.4 1.9-2.3zm-57.6-2.8c.3-1.4 2.6-5.2 7.9-4.6 5.3.5 7 5.1 7 5.1.7 3.6-.6 9.7-7.7 9.4-7.1-.3-7.5-8.5-7.2-9.9zm7.4 6.5c4 .2 4.8-3.3 4.4-5.3 0 0-1-3.3-4-3.6-3-.3-4.3 2.6-4.5 3.3-.2.8 0 5.4 4.1 5.6z"/><path fill="#1C1C1C" d="M17.7 110.4s-.3-1.1-1.3-1.3c-1-.1-1.5.9-1.5 1.1-.1.3 0 1.8 1.4 1.9s1.6-1 1.4-1.7zm74.5 3.1s-.1 6-7 5.8-7.1-6.3-7.1-6.3l14.1.5zM41 111s-.2 5.5-6.5 5.2c-6.3-.3-6.4-5.9-6.4-5.9l12.9.7zm17.9-17.9h3.6v-1.2h-3.6v1.2c-.1-.1 0 0 0 0z"/><path fill="#1C1C1C" d="M25.8 109s-2.2-3.7-4.3-4.3c-2.2-.6-10.8-1.5-12.1 0-1.3 1.5-2.7 1.7-5.3 1.8-2.5.2 1.7 2.2 5.7 1.9 4-.3 1.1-2.9 6.8-2.3 5.7.6 3.7 3.5 6 3.7 2.1.2 3.4.7 3.2-.8zm47.4-3.6c-1.6-1.9-4.8-4.6-8.7-4.7-3.8-.1-6.8 1.9-7.6 3.3 0 0 1.8-4 7.6-4 5.8.1 8.7 5.4 8.7 5.4zm-15.9-32s-1.6.1-2 2.8l.4-2.8h1.6zm-26.7 1.2s-1.6.1-2 2.8l.4-2.8h1.6zM93 84.2s2.9-.4 4 0 1.7 2.4-1.7 2.8c-2.9.3-5.2.4-9.4.4-5.7 0-7 0-12.5-.1-6.5-.1-66.5.6-68.9.3-1.7-.2-1.2-1.1 0-1.2 2 0 66.7-.9 72.5-1.2 5.8-.3 13.1-.9 16-1zm-70.4 19.9s-7-1.9-12-.9c0 0 5.5-3.2 12 .9zm47.9 15.2c1.1-.1 16.9-3.5 27.5-.6 10.6 2.8-26 7.4-52.1 2.7.1 0 17.7-1.4 24.6-2.1zm-59.9-1.8c.5 0 7.3-1.5 11.8-.3 4.6 1.2-11.2 3.2-22.4 1.2 0 0 7.6-.6 10.6-.9z"/><path fill="#1C1C1C" d="M28.5 115.8c.5-.1 7.5-2.2 12.2-.4 4.7 1.8-11.6 4.6-23.1 1.7 0 0 7.9-.8 10.9-1.3zm-2.3-57.7c.2 2.3.7 8.5.9 8.7s-.1-6.2-.2-8.7l6.1 2.2 1 8.5c-5.1.5-16 2.3-16 2.3l-1-8.7 9.2-4.3zm60.4 45.1c-1.7 0-3.1-1.4-3.1-3.1 0-1.7 1.4-3.1 3.1-3.1s3.1 1.4 3.1 3.1c0 1.7-1.4 3.1-3.1 3.1zm5.3-31s-2.3-3.3-7.2-3.6c-4.8-.3-50.2 1.6-55.6 2.3-9 1.1-15.9 2.6-20.2 4.6.1 0 66.8-3 83-3.3z"/><path fill="#AACF9A" d="M84.4 64.2c-.1.5-.5 1.3-1.5 1.3-2 0-41.1 1.1-42.2 1.1-1 0-1.7-.7-1.7-1.3l45.4-1.1z"/><path fill="#C1E7AB" d="M84.4 64.2l-45.3 1.2 1.7-2.4 41.5-1.4 2.1 2.6z"/><path fill="#D5F7BF" d="M38 51.4c-.4-3.6 1.7-6.1 5-6.1 3.2-.1 31.4-.8 35.6-.9 4.2-.1 5.8 2.8 6.1 5.9.3 3.1 1.2 6.5-4.2 7.6-5.5 1.1-36.2 2.1-39.1 1-2.9-1.1-3.1-4.9-3.4-7.5z"/><path fill="#C1E7AB" d="M82.6 51.9c-.2-3.6-1.2-5.7-3.8-5.6-2.5.1-33 .9-35.1.9-2.1 0-4.4 1.6-3.6 5.9.8 4.3.8 4.7 3.2 5.3 2.4.6 35-.9 36.5-1 1.5 0 2.6-.7 2.8-1.8.2-1.2 0-3.7 0-3.7z"/><path fill="#AACF9A" d="M87.7 50.9c-.2-1-.9-1.4-2.1-1.5-.8-.1-2.6-.1-3.2.4-.7.5-1.1 4.3-1.6 6.4.6 1 1.5 5.2 1.5 5.2l2.2 2.8c-.1 0 4.4-5.4 3.2-13.3zm-52.5 1.4c.1-1 .8-1.4 2-1.6.8-.2 2.6-.2 3.3.3s1.4 4.5 2 6.5c-.5 1.1-1.2 5-1.2 5l-2.1 3c0-.1-4.7-5.3-4-13.2z"/><path fill="#C1E7AB" d="M85.4 49.4h.2c1.2.2 1.9.6 2.1 1.5 1.2 7.8-3.2 13.2-3.2 13.2l-1.5-2c1.4-1.7 3.2-8.3 2.4-12.7zm-50.2 2.9c.1-1 .8-1.4 2-1.6-.2 3.9 1.8 10.9 3.4 12.7l-1.5 2c.1 0-4.6-5.2-3.9-13.1z"/><path fill="#D5F7BF" d="M85.5 50.7c-.6 0-2.5-.5-3.3-.7 0-.1.1-.1.2-.2.7-.5 2.4-.5 3.2-.4 1 .2 1.7.5 2 1.2-.7.1-1.7.1-2.1.1zm-50.2 1.2c.2-.7.9-1 1.9-1.3.8-.2 2.6-.2 3.3.3l.2.2c-.8.3-2.6.8-3.2.9-.5 0-1.5 0-2.2-.1zm49.3 5.6c.5.3.7.4 1 1 .2.5-.1 2.1-.5 2.9-.3.8-1 .9-2.1.9-1 0-42.9 1.1-43.9 1.1s-1.5-.9-1.5-1.8c-.1-.9-.1-1.8 0-2.3.1-.4.5-.8.9-1 .4-.2 4.1-1.3 6.5-1.3 2.3 0 33.6-.9 35.7-.9.7.1 1.9.2 3.9 1.4z"/><path fill="#C1E7AB" d="M85.6 58.4s0 .1 0 0c.3.6-.1 2.2-.4 2.9-.3.8-1 .9-2.1.9-1 0-42.9 1.1-43.9 1.1s-1.5-.9-1.5-1.8c-.1-.7-.1-1.5 0-2l47.9-1.1z"/><path fill="#1C1C1C" d="M71.7 47.4V54c0 .2.4-3.9.7-6.5l7.3 1.5-.1 7.3c-2.2.3-8.2 1-8.2 1l-4.7-.8.1-7.6 4.9-1.5zm-11.1 4.9c.2 1.4.5 3.3.5 3.4v-3.5l4.7.8.1 4.4c-1.3.2-5 .8-5 .8l-2.8-.4-.1-4.6 2.6-.9z"/><path fill="#282828" d="M83 65.6l.5 1.8H82l-1.7-1.7 2.7-.1zm-40.3 1l-.4 2 1.5-.1 1.6-2-2.7.1z"/><path fill="#AACF9A" d="M15 59l-1-10.9.7-.4 2-1.2 9 6.2c.1 0-3.1 4.5-10.7 6.3z"/><path fill="#1C1C1C" d="M17.3 49.5l7 11.8-.5.3-7-11.8.5-.3z"/><path fill="#C1E7AB" d="M15 59l-1-10.9.7-.4 2-1.2 9 6.2c.1 0-4.2 2.6-10.7 6.3z"/><path fill="#D5F7BF" d="M15.6 47.2l5 8.6 3.4-2-7.7-7-.7.4zm-.9.5l3.2 9.7L15 59l-1-10.9.7-.4z"/></svg>