<?xml version="1.0" encoding="utf-8"?>
<!-- Generator: Adobe Illustrator 17.1.0, SVG Export Plug-In . SVG Version: 6.00 Build 0)  -->
<!DOCTYPE svg PUBLIC "-//W3C//DTD SVG 1.1//EN" "http://www.w3.org/Graphics/SVG/1.1/DTD/svg11.dtd">
<svg version="1.1" id="Слой_1" xmlns="http://www.w3.org/2000/svg" xmlns:xlink="http://www.w3.org/1999/xlink" x="0px" y="0px"
	 viewBox="0 0 80 80" enable-background="new 0 0 80 80" xml:space="preserve">
<g>
	<defs>
		<rect id="SVGID_1_" width="80" height="80"/>
	</defs>
	<clipPath id="SVGID_2_">
		<use xlink:href="#SVGID_1_"  overflow="visible"/>
	</clipPath>
	<g clip-path="url(#SVGID_2_)">
		<path fill="#475993" d="M69.2-2H10.8C4.8-2,0,2.8,0,8.8v58.4C0,73.2,4.8,78,10.8,78h28.8l0.1-28.6h-7.4c-1,0-1.7-0.8-1.8-1.7
			l0-9.2c0-1,0.8-1.8,1.8-1.8h7.4v-8.9c0-10.3,6.3-16,15.5-16h7.6c1,0,1.8,0.8,1.8,1.8v7.8c0,1-0.8,1.8-1.8,1.8H58c-5,0-6,2.4-6,5.9
			v7.7h11c1.1,0,1.9,0.9,1.7,2l-1.1,9.2c-0.1,0.9-0.9,1.5-1.7,1.5h-9.9L52,78h17.1C75.1,78,80,73.2,80,67.2V8.8
			C80,2.8,75.2-2,69.2-2z"/>
	</g>
</g>
</svg>
