<svg width="36" height="35" viewBox="0 0 36 35" fill="none" xmlns="http://www.w3.org/2000/svg">
<path d="M35.9102 3.37425V31.6258C35.9102 33.5238 34.4261 35 32.5359 35H4.29222C2.42544 34.9922 0.917969 33.5394 0.917969 31.6179V3.37425C0.917969 1.49185 2.38639 0 4.29222 0H32.5437C34.4183 0 35.9102 1.46842 35.9102 3.37425ZM32.9967 31.6179V3.37425C32.9967 3.13992 32.7937 2.92122 32.5437 2.92122H31.8173H22.9375H17.7345H13.1067L5.01862 2.91341H4.29222C4.04227 2.91341 3.83919 3.13211 3.83919 3.36644V31.6179C3.83919 31.8523 4.04227 32.071 4.29222 32.071H32.5437C32.7937 32.0788 32.9967 31.8601 32.9967 31.6179ZM12.6497 12.0286V14.9185H6.90882V12.0286H12.6497ZM12.6497 17.8398V20.7532H6.90882V17.8398H12.6497ZM13.1067 2.92122H17.7345H8.47878H13.1067ZM29.9193 12.0286V14.9185H14.6102V12.0286H29.9193ZM29.9193 17.8398V20.7532H14.6102V17.8398H29.9193ZM29.9193 23.6666V26.58H22.1554V23.6666H29.9193Z" fill="#C38E68"/>
</svg>
