<svg width="81" height="80" fill="none" xmlns="http://www.w3.org/2000/svg"><g clip-path="url(#clip0)"><path d="M17.875 48.344l-2.804 10.39-10.252.22C1.732 53.312 0 46.858 0 40c0-6.64 1.622-12.89 4.504-18.39l9.134 1.656 4 9A23.657 23.657 0 0 0 16.347 40c0 2.938.535 5.75 1.527 8.344z" fill="#FBBB00"/><path d="M79.923 32.531c.457 2.422.71 4.922.71 7.469 0 2.86-.3 5.656-.883 8.36-1.968 9.171-7.087 17.171-14.19 22.843l-11.496-.578-1.622-10.078c4.71-2.75 8.394-7.031 10.331-12.172H41.198V32.53h38.725z" fill="#518EF8"/><path d="M65.56 71.187C58.648 76.703 49.876 80 40.317 80A40.348 40.348 0 0 1 4.803 58.953l13.072-10.61c3.401 9.016 12.173 15.438 22.441 15.438 4.41 0 8.551-1.188 12.11-3.25l13.135 10.656z" fill="#28B446"/><path d="M66.049 9.203l-13.056 10.61c-3.669-2.282-8.016-3.594-12.677-3.594-10.504 0-19.434 6.718-22.678 16.047L4.504 21.594C11.213 8.766 24.741 0 40.316 0c9.78 0 18.756 3.453 25.733 9.203z" fill="#F14336"/></g><defs><clipPath id="clip0"><path fill="#fff" d="M0 0h80.632v80H0z"/></clipPath></defs></svg>