<?xml version="1.0" encoding="utf-8"?>
<!-- Generator: Adobe Illustrator 17.1.0, SVG Export Plug-In . SVG Version: 6.00 Build 0)  -->
<!DOCTYPE svg PUBLIC "-//W3C//DTD SVG 1.1//EN" "http://www.w3.org/Graphics/SVG/1.1/DTD/svg11.dtd">
<svg version="1.1" id="Слой_1" xmlns="http://www.w3.org/2000/svg" xmlns:xlink="http://www.w3.org/1999/xlink" x="0px" y="0px"
	 viewBox="0 0 11 19" enable-background="new 0 0 11 19" xml:space="preserve">
<path fill="#565559" d="M10,13.6c0.3,0,0.5-0.1,0.6-0.3l-3.1-3.1c-0.1,0-0.1,0.1-0.2,0.2c-0.2,0.2-0.4,0.3-0.6,0.4
	c-0.1,0.1-0.3,0.2-0.6,0.3c-0.3,0.1-0.5,0.2-0.7,0.2l0,0l0,0c-0.2,0-0.4,0-0.7-0.2c-0.3-0.1-0.4-0.2-0.6-0.3
	c-0.1-0.1-0.3-0.2-0.5-0.4c-0.1,0-0.1-0.1-0.2-0.2l-3.1,3.1c0.2,0.2,0.4,0.3,0.6,0.3H10z"/>
<path fill="#565559" d="M0.6,8.4C0.4,8.2,0.2,8,0,7.8v4.7l2.8-2.8C2.2,9.4,1.5,8.9,0.6,8.4z"/>
<path fill="#565559" d="M10.3,8.4C9.5,8.9,8.8,9.4,8.2,9.8l2.8,2.8V7.8C10.8,8,10.6,8.2,10.3,8.4z"/>
<path fill="#565559" d="M10,5.1H1c-0.3,0-0.6,0.1-0.7,0.3C0.1,5.6,0,5.9,0,6.2C0,6.4,0.1,6.7,0.3,7c0.2,0.3,0.5,0.6,0.7,0.7
	c0.1,0.1,0.6,0.4,1.3,0.9c0.4,0.3,0.7,0.5,1,0.7c0.3,0.2,0.5,0.3,0.6,0.4c0,0,0,0,0.1,0.1c0,0,0.1,0.1,0.2,0.1
	c0.1,0.1,0.3,0.2,0.3,0.2s0.2,0.1,0.3,0.2c0.1,0.1,0.3,0.1,0.3,0.2c0.1,0,0.2,0,0.3,0l0,0l0,0c0.1,0,0.2,0,0.3,0
	c0.1,0,0.2-0.1,0.3-0.2c0.1-0.1,0.2-0.1,0.3-0.2c0.1,0,0.2-0.1,0.3-0.2c0.1,0,0.1-0.1,0.2-0.1s0.1,0,0.1-0.1
	c0.1-0.1,0.3-0.3,0.6-0.4C8.2,8.9,9,8.4,9.9,7.7c0.3-0.2,0.6-0.5,0.8-0.8S11,6.4,11,6c0-0.3-0.1-0.5-0.3-0.7
	C10.5,5.1,10.2,5.1,10,5.1z"/>
</svg>
