<svg width="23" height="22" fill="none" xmlns="http://www.w3.org/2000/svg"><path d="M17.22 14.447c-.713-.705-1.604-.705-2.313 0-.54.536-1.081 1.072-1.613 1.617-.145.15-.268.182-.445.082-.35-.19-.723-.345-1.06-.554-1.567-.986-2.88-2.254-4.044-3.681-.577-.709-1.09-1.468-1.45-2.322-.072-.173-.058-.287.083-.427.54-.523 1.067-1.06 1.6-1.596.74-.745.74-1.617-.005-2.367-.423-.427-.846-.845-1.268-1.273-.437-.436-.868-.877-1.309-1.308-.713-.696-1.604-.696-2.313.004-.545.536-1.068 1.086-1.622 1.613-.514.487-.773 1.082-.828 1.777-.086 1.132.191 2.2.582 3.24.8 2.154 2.018 4.068 3.495 5.822 1.995 2.372 4.376 4.249 7.162 5.603 1.254.609 2.554 1.077 3.967 1.154.972.055 1.818-.19 2.495-.95.463-.518.986-.99 1.477-1.485.727-.737.731-1.627.009-2.354a698.833 698.833 0 0 0-2.6-2.595zm-.868-3.622l1.677-.286a7.495 7.495 0 0 0-2.095-4.045 7.454 7.454 0 0 0-4.271-2.131l-.237 1.686a5.783 5.783 0 0 1 3.309 1.65 5.782 5.782 0 0 1 1.617 3.126zm2.623-7.289A12.365 12.365 0 0 0 11.885 0l-.236 1.686a10.721 10.721 0 0 1 6.126 3.054 10.712 10.712 0 0 1 3.004 5.794l1.677-.286a12.455 12.455 0 0 0-3.481-6.712z" opacity=".3" fill="#fff"/></svg>