<svg width="287" height="58" fill="none" xmlns="http://www.w3.org/2000/svg"><g clip-path="url(#clip0)"><path d="M106.291 37.777a9.71 9.71 0 0 1 .611-3.375 8.383 8.383 0 0 1 1.713-2.793c1.621-1.719 3.732-2.578 6.332-2.578 2.569 0 4.618.829 6.148 2.455 1.468 1.565 2.171 3.59 2.171 6.046 0 2.486-.734 4.542-2.232 6.168-1.591 1.718-3.671 2.578-6.301 2.578-2.692 0-4.803-.86-6.332-2.547-1.438-1.535-2.11-3.53-2.11-5.954zm3.854-.092c0 .675.122 1.32.336 1.964a5.07 5.07 0 0 0 .948 1.627c.887.982 2.05 1.442 3.487 1.442 1.315 0 2.386-.46 3.151-1.412.734-.92 1.101-2.117 1.101-3.59 0-1.504-.398-2.7-1.163-3.621-.825-.982-1.927-1.473-3.364-1.473-1.438 0-2.569.521-3.395 1.565-.734.951-1.101 2.117-1.101 3.498zm78.548 4.143c0 2.393.03 3.928.122 4.633h-4.16V29.737h4.038v1.442c1.468-1.166 2.936-1.75 4.465-1.75 1.805 0 3.12.799 3.946 2.364.826-.829 1.499-1.381 2.049-1.657.918-.46 1.805-.676 2.723-.676.917 0 1.682.154 2.324.46a4.136 4.136 0 0 1 1.591 1.32c.826 1.136 1.254 2.7 1.254 4.695v6.353c0 1.81.03 2.885.092 3.253.061.368.122.583.214.706.091.092.153.214.244.276l-.03.061c-.857-.061-1.468-.123-1.866-.123h-1.193c-.398 0-.887.031-1.437.062v-8.654c0-2.486-.398-3.99-1.163-4.45-.244-.153-.55-.215-.887-.215-.336 0-.642.031-.917.123a2.14 2.14 0 0 0-.735.399c-.397.276-.825.86-1.345 1.688 0 .092.03.184.03.245v4.235c0 2.732.061 4.91.184 6.598h-2.294c-.643 0-1.224.03-1.805.062V37.9c0-1.75-.092-2.854-.306-3.376-.214-.522-.428-.86-.673-1.013a1.559 1.559 0 0 0-.856-.245c-1.407 0-2.569.675-3.518 2.025v6.537h-.091zm21.747-3.652c0-1.166.183-2.302.612-3.376a8.351 8.351 0 0 1 1.713-2.792c1.621-1.72 3.731-2.578 6.331-2.578 2.569 0 4.619.828 6.148 2.455 1.468 1.565 2.172 3.59 2.172 6.045 0 2.486-.765 4.542-2.233 6.169-1.591 1.718-3.67 2.577-6.301 2.577-2.692 0-4.802-.859-6.332-2.547-1.437-1.534-2.11-3.529-2.11-5.953zm3.854-.092c0 .675.122 1.32.336 1.964.215.613.551 1.166.949 1.626.887.982 2.049 1.443 3.487 1.443 1.315 0 2.385-.46 3.15-1.412.734-.92 1.101-2.118 1.101-3.59 0-1.504-.367-2.701-1.132-3.622-.825-.982-1.927-1.473-3.364-1.473-1.438 0-2.569.522-3.395 1.565-.765.952-1.132 2.118-1.132 3.499zm14.009-8.348h4.496l3.885 10.987 3.762-10.987h4.405l-6.546 16.695h-3.273l-6.729-16.695zm41.568 14.915c0 .92.031 1.504.061 1.78h-4.037V22.617h3.976v22.034zm10.063 2.025c-2.997 0-5.261-.552-6.76-1.657.031-.307.062-.675.092-1.074l.153-1.166c.092-.768.122-1.228.153-1.412.031-.184.031-.276.061-.307 0-.03.092.061.245.246.153.184.459.399.918.675.458.276.948.49 1.56.706 1.254.43 2.569.644 3.945.644 1.835 0 2.753-.614 2.753-1.841 0-.4-.183-.675-.52-.89-.642-.307-1.56-.553-2.753-.737-1.223-.153-2.202-.399-2.997-.736-.765-.307-1.407-.706-1.897-1.166-.917-.829-1.346-1.934-1.346-3.315 0-1.657.643-2.976 1.927-3.928 1.255-.951 2.998-1.411 5.231-1.411 2.202 0 4.099.644 5.658 1.872a6.014 6.014 0 0 1-.244.798 36.243 36.243 0 0 1-.551 1.503l-.367.952c-.03.092-.03.122-.061.122s-.092-.123-.245-.337c-.673-.767-1.713-1.29-3.12-1.535a6.455 6.455 0 0 0-1.345-.122c-1.927 0-2.906.583-2.906 1.749 0 .399.214.706.612.92.764.4 1.774.706 3.089.89 1.315.184 2.294.46 2.997.767.673.338 1.224.706 1.652 1.167.765.828 1.132 1.933 1.132 3.314 0 1.504-.612 2.731-1.805 3.652-1.254 1.166-2.997 1.657-5.261 1.657zm-119.229-2.73l-3.242-6.874c.55-.307 1.07-.644 1.499-1.043 1.315-1.259 1.988-2.762 1.988-4.542 0-2.271-.734-3.959-2.172-5.064-1.437-1.104-3.64-1.626-6.607-1.626-2.171 0-4.007.092-5.475.276v21.39h4.221v-17.83a12.56 12.56 0 0 1 1.56-.092c1.438 0 2.508.215 3.242.613.796.46 1.193 1.259 1.193 2.394 0 1.136-.367 1.964-1.131 2.547a3.66 3.66 0 0 1-1.254.583c-.49.123-1.071.184-1.775.184-.214 0-.428 0-.642-.03l2.141 4.91 2.998 6.813c2.202-.185 3.823-.185 4.863-.031l.092-.092c-.367-.215-.857-1.074-1.499-2.486zm100.479-2.303v-5.8c0-1.013-.153-1.903-.459-2.7-.978-2.517-3.181-3.745-6.637-3.745-2.233 0-4.282.491-6.179 1.474l.49 3.529.061.03c.459-.43 1.193-.798 2.202-1.135.459-.154.948-.276 1.438-.368a8.233 8.233 0 0 1 1.499-.123c.489 0 1.009.061 1.468.153 1.376.276 2.11 1.29 2.202 2.977-.122-.03-.275-.03-.428-.03-.153 0-.306 0-.428-.031l-.643-.031c-2.814 0-5.016.552-6.668 1.657-1.498 1.013-2.263 2.302-2.263 3.836 0 1.718.612 3.038 1.835 3.928.612.46 1.346.798 2.202 1.013.857.215 1.927.337 3.151.337.856 0 1.774-.214 2.783-.613-.306-.522-.826-1.627-.917-2.947a6.173 6.173 0 0 1-1.683.215c-1.101 0-1.896-.153-2.477-.49-.275-.185-.49-.4-.612-.645a2.11 2.11 0 0 1-.183-.89c0-.338.091-.675.275-.982.642-1.044 2.141-1.565 4.466-1.565h.642c.306 0 .612.03.887.092v3.744c.031.43.214 1.933.887 3.007a3.958 3.958 0 0 0 1.407 1.35l2.875-2.639c-.765-.521-1.193-1.35-1.193-2.608zM180.74 38.85c.122-.306.183-.89.183-1.718 0-2.21-.673-4.02-2.018-5.462-1.377-1.504-3.182-2.24-5.445-2.24-2.692 0-4.833.859-6.515 2.547a8.593 8.593 0 0 0-1.805 2.792c-.428 1.074-.642 2.21-.642 3.468 0 2.486.887 4.511 2.661 6.107 1.774 1.565 4.007 2.363 6.699 2.363.489 0 1.009-.03 1.529-.092 1.805-.215 3.12-.583 3.915-1.136l.184-2.485.091-1.381a7.11 7.11 0 0 1-.703.46c-1.224.614-2.661.92-4.343.92-1.622 0-2.937-.306-3.946-.95-.795-.492-1.346-1.136-1.683-1.934 0 0-.825-1.903-.183-3.744 0-.03.031-.061.031-.092.122-.46.305-.89.55-1.289.826-1.38 2.08-2.087 3.671-2.087 2.049 0 3.303 1.136 3.731 3.438-.275.03-.581.03-.948.06l-1.315.062c-.52 0-1.04.03-1.591.03h-.917c-.367 0-.734 0-1.132-.03h-.673c-.153.338-.612 1.535.153 3.008h3.976c3.242-.154 5.414-.307 6.485-.614zm-79.252 7.703c-.52-.061-1.865-.092-4.037-.092h-.52V28.294h-3.242c-.949 0-1.53.061-1.713.153a1.484 1.484 0 0 0-.398.276l-.061-.03v-4.205l.061-.06c.367.122 1.346.183 2.906.183h10.277c.948 0 1.529-.061 1.713-.153.184-.092.306-.184.398-.276l.061.03v4.205l-.061.06c-.367-.122-1.346-.183-2.906-.183h-2.447l-.031 18.26zm38.479-15.528a6.496 6.496 0 0 0-2.416-1.534c-.918-.338-1.958-.491-3.151-.491-1.193 0-2.416.46-3.701 1.35v-1.043h-3.915v22.862h3.976c-.03-.276-.061-.859-.061-1.78V33.972c.428-.46.948-.799 1.56-1.075a4.345 4.345 0 0 1 1.774-.399c.581 0 1.132.123 1.682.369.306.153.612.337.918.552.306.215.551.522.795.86.245.337.429.766.581 1.227.153.46.215 1.105.215 1.902 0 .798-.092 1.535-.306 2.24-.612 2.026-1.988 3.07-4.068 3.07a5.391 5.391 0 0 1-1.927-.338v3.682a9.873 9.873 0 0 0 2.232.277c1.346 0 2.57-.338 3.732-.982 1.285-.737 2.325-1.719 3.059-2.946.856-1.443 1.284-3.1 1.284-4.941 0-2.793-.764-4.94-2.263-6.445z" fill="#1C1C1C"/><path d="M4.313 32.193c-.581 3.345.367 10.618-2.723 13.84-2.232 2.332 10.308 4.143 11.379 2.578 1.07-1.565 1.958-14.24 6.607-14.485 4.649-.245 55.485-1.78 55.301-2.547-.122-.46-19.82-.276-38.784-.706-11.93-.276-23.522-1.258-29.73-1.258-.582 0-1.867 1.657-2.05 2.578z" fill="#C1E7AB"/><path d="M44.627 42.871c-.184-.03-.643 0-1.407 0h-.184c-.061-2.7-.183-4.419-.642-6.75-.459 0-.673.03-1.132.03-.336 0-.55.03-.612.061a.421.421 0 0 0-.122.092h-.03a7.37 7.37 0 0 0-.306-1.289c.152.031.489.031 1.07.031 1.438-.03 2.141-.03 3.518-.061.306 0 .489-.031.55-.031.061-.03.092-.061.123-.061h.03c.153.43.214.675.337 1.227v.03c-.123-.03-.46-.06-.98-.03-.336 0-.489 0-.825.03.428 2.272.55 3.99.612 6.721zm2.293-3.405c-.06-.46-.03-.92.062-1.32.092-.399.214-.767.428-1.043.428-.645 1.07-.92 1.927-.92.857-.031 1.621.214 2.264.766.611.522 1.009 1.259 1.131 2.24.123.983-.06 1.811-.55 2.456-.52.705-1.224 1.043-2.11 1.074-.918.03-1.653-.246-2.234-.89-.52-.614-.825-1.412-.917-2.363zm1.316-.092c.03.276.092.521.184.767.091.245.214.46.367.644.336.369.734.553 1.223.522.459-.03.795-.215 1.04-.614.214-.368.306-.859.245-1.442-.062-.583-.276-1.043-.581-1.38a1.47 1.47 0 0 0-1.224-.492c-.49 0-.826.215-1.04.614a2.495 2.495 0 0 0-.214 1.38zm7.372 2.884c.03.705.03 1.043.03 1.687v.583c-.55.031-.826.031-1.407.062.153-2.824-.061-5.524-.887-8.378.52 0 .795 0 1.346-.03.03.122.061.183.092.337a1.99 1.99 0 0 1 1.162-.46c.428 0 .795.03 1.162.122.367.092.704.246 1.01.46.703.461 1.162 1.228 1.345 2.272a3.16 3.16 0 0 1-.244 1.933c-.245.49-.581.89-1.04 1.166-.398.276-.857.399-1.346.43-.459 0-.887-.062-1.224-.184zm-.123-1.566c.306.246.704.369 1.162.369.765-.031 1.224-.46 1.346-1.258.03-.277.03-.553 0-.86a1.749 1.749 0 0 0-.214-.706 1.721 1.721 0 0 0-.306-.46 3.252 3.252 0 0 0-.367-.307 1.033 1.033 0 0 0-.367-.184 1.55 1.55 0 0 0-.612-.123c-.214 0-.397.062-.611.154a1.442 1.442 0 0 0-.46.399c.246 1.135.307 1.78.43 2.977z" fill="#000"/><path d="M4.068 37.01s-1.346.46-1.468 2.393c-.092 1.934.887 2.394.887 2.394l.581-4.787zm21.197 11.11c-5.353.123-9.696.215-10.828.246-3.059.092-9.849-.092-11.807-.706-1.988-.614-.611-1.933-.611-1.933-2.784.552-2.967 4.235 1.346 4.879 2.722.43 11.929 0 22.022-.522-.244-.614-.306-1.32-.122-1.964zm25.693-.768c-2.844.184-9.36.368-16.12.552.245.522.337 1.105.276 1.688 2.722-.123 5.353-.276 7.83-.368 6.362-.246 13.275-.706 19.087-1.197-.03-.491.061-.982.275-1.412-4.068.276-8.38.553-11.348.737zm22.145-1.626c-.489.062-1.804.184-3.64.338.184.368.245.798.276 1.227 3.456-.398 5.628-.767 5.597-1.012-.06-.767-.428-.829-2.233-.553zM13.642 20.5s-3.701 6.261-4.374 8.962h1.499s3.976-8.777 4.802-9.176c.856-.368-1.927.215-1.927.215zm14.101.338l-2.05 9.482h1.01l2.049-9.482h-1.01zm8.809.398l1.284 9.421h2.172l-1.346-9.42h-2.11zm19.361.707l1.989 8.838h1.988l-1.99-8.837h-1.988z" fill="#1C1C1C"/><path d="M37.316 47.689c-.336-1.289-2.508-6.107-7.616-5.585-5.108.522-6.76 6.076-6.76 6.076-.734 3.406.581 9.145 7.433 8.838 6.882-.307 7.28-8.04 6.943-9.329zm-7.035 6.107c-3.884.184-4.649-3.1-4.22-5.033 0 0 .948-3.13 3.823-3.437 2.905-.307 4.129 2.424 4.313 3.16.183.737-.031 5.126-3.916 5.31z" fill="#1C1C1C"/><path d="M28.721 49.286s.306-1.074 1.285-1.166c.979-.092 1.407.828 1.468 1.074.061.245 0 1.749-1.315 1.78-1.315.03-1.56-1.044-1.438-1.688zm42.241-2.026c-.244-1.013-1.927-3.805-5.78-3.376-3.885.4-5.14 3.775-5.14 3.775-.55 2.64.46 7.12 5.66 6.874 5.2-.245 5.505-6.26 5.26-7.273zm-5.383 4.726c-2.967.123-3.518-2.394-3.212-3.897 0 0 .704-2.455 2.906-2.67 2.202-.215 3.15 1.903 3.273 2.455.183.583 0 3.99-2.967 4.112z" fill="#1C1C1C"/><path d="M64.417 48.487s.244-.828.978-.92c.734-.093 1.071.644 1.102.828.06.184 0 1.35-1.01 1.381-1.01.03-1.193-.767-1.07-1.289zm-54.66 2.271s.092 4.389 5.108 4.235c5.017-.153 5.2-4.634 5.2-4.634l-10.308.4zm37.592-1.811s.153 4.051 4.772 3.806c4.618-.246 4.71-4.327 4.71-4.327l-9.482.521zM34.196 35.752h-2.66c-.031 0-.031-.03-.031-.03v-.89c0-.031.03-.031.03-.031h2.661c.031 0 .031.03.031.03v.89c.03 0 0 .031-.03.031z" fill="#1C1C1C"/><path d="M58.513 47.443s1.59-2.73 3.181-3.191c1.59-.43 7.953-1.074 8.901 0 .979 1.074 2.019 1.227 3.885 1.32 1.866.122-1.254 1.595-4.221 1.38-2.967-.214-.826-2.117-4.986-1.687-4.16.43-2.753 2.577-4.374 2.73-1.621.154-2.539.523-2.386-.552zm-34.777-2.607c1.162-1.381 3.548-3.407 6.362-3.468 2.814-.061 4.986 1.412 5.597 2.455 0 0-1.315-2.946-5.597-2.946-4.282.03-6.362 3.959-6.362 3.959zM35.39 21.328s1.192.062 1.468 2.056l-.276-2.025-1.193-.03zm19.575.83s1.193.062 1.468 2.056l-.275-2.025-1.193-.03zM9.146 29.246s-2.111-.276-2.906 0c-.796.276-1.285 1.749 1.223 2.025 2.11.246 3.793.276 6.882.307 4.221.03 5.139 0 9.176-.061 4.772-.062 48.848.43 50.622.184 1.224-.154.918-.829 0-.86-1.468-.03-48.97-.675-53.221-.859-4.252-.215-9.605-.644-11.776-.736zm51.692 14.578s5.139-1.412 8.809-.645c0 0-4.007-2.363-8.81.645zm-35.145 11.17c-.826-.092-12.418-2.547-20.218-.46-7.8 2.086 19.117 5.431 38.234 1.994 0 0-12.969-.982-18.016-1.534zm43.985-1.321c-.367-.03-5.353-1.104-8.687-.184-3.365.89 8.228 2.333 16.456.86-.03 0-5.598-.43-7.77-.676z" fill="#1C1C1C"/><path d="M56.525 52.447c-.367-.062-5.536-1.596-8.992-.276-3.457 1.32 8.503 3.406 16.975 1.258 0-.03-5.75-.645-7.983-.982zm1.682-42.381c-.153 1.657-.55 6.23-.642 6.414-.092.184.092-4.572.184-6.352l-4.466 1.626-.704 6.26c3.732.4 11.776 1.72 11.776 1.72l.734-6.384-6.882-3.284zM13.856 43.18a2.298 2.298 0 0 0 2.294-2.302 2.298 2.298 0 0 0-2.294-2.302 2.298 2.298 0 0 0-2.294 2.302 2.298 2.298 0 0 0 2.294 2.301zM9.94 20.408s1.714-2.394 5.262-2.609c3.517-.214 36.827 1.197 40.803 1.688 6.607.829 11.654 1.934 14.835 3.376-.03-.03-48.97-2.21-60.9-2.455z" fill="#1C1C1C"/><path d="M15.446 14.578c.092.338.398.951 1.071.982 1.468.03 30.159.798 30.954.798.765.03 1.224-.522 1.224-.92l-33.249-.86z" fill="#AACF9A"/><path d="M15.446 14.578l33.249.86-1.285-1.78-30.465-1.013-1.499 1.933z" fill="#C1E7AB"/><path d="M49.551 5.187c.306-2.639-1.285-4.45-3.64-4.511C43.525.615 22.85.062 19.76.001c-3.09-.092-4.251 2.056-4.496 4.296-.245 2.24-.887 4.788 3.12 5.585 4.007.798 26.61 1.535 28.721.737 2.08-.798 2.233-3.56 2.447-5.432z" fill="#D5F7BF"/><path d="M16.823 5.525c.183-2.67.918-4.204 2.783-4.142 1.866.061 24.256.644 25.785.675 1.53.03 3.243 1.166 2.63 4.296-.61 3.13-.61 3.437-2.385 3.867-1.774.43-25.693-.675-26.825-.706-1.101-.03-1.927-.491-2.05-1.32-.122-.859.062-2.67.062-2.67z" fill="#C1E7AB"/><path d="M13.06 4.818c.123-.706.643-1.013 1.53-1.135.612-.092 1.896-.062 2.386.306.49.369.826 3.161 1.193 4.696-.46.767-1.101 3.805-1.101 3.805l-1.622 2.087s-3.242-4.02-2.385-9.759zm38.51 1.013c-.092-.706-.581-1.043-1.468-1.197-.612-.122-1.897-.153-2.417.184-.52.338-1.009 3.284-1.437 4.788.397.798.917 3.682.917 3.682l1.53 2.18c0-.031 3.426-3.867 2.875-9.637z" fill="#AACF9A"/><path d="M14.743 3.684c-.061 0-.092 0-.153.03-.918.123-1.407.43-1.53 1.136-.856 5.708 2.386 9.728 2.386 9.728l1.132-1.443c-1.1-1.35-2.386-6.23-1.835-9.451zM51.57 5.832c-.092-.706-.581-1.013-1.438-1.197.184 2.884-1.315 8.01-2.477 9.298l1.07 1.504c-.03 0 3.395-3.836 2.845-9.605z" fill="#C1E7AB"/><path d="M14.682 4.634c.46-.03 1.805-.368 2.417-.522a.24.24 0 0 0-.122-.123c-.49-.368-1.774-.398-2.386-.306-.765.122-1.254.337-1.468.859.489.092 1.254.123 1.56.092zm36.827.921c-.184-.522-.642-.767-1.407-.92-.612-.123-1.897-.154-2.416.183-.031.031-.092.062-.123.123.612.184 1.927.583 2.386.645.336 0 1.07.03 1.56-.031zM15.324 9.638c-.336.215-.55.307-.703.706-.153.399.091 1.565.336 2.117.245.552.765.644 1.53.644.734.031 31.474.829 32.239.829.734.03 1.07-.644 1.131-1.32.061-.644.092-1.35 0-1.657-.092-.307-.397-.552-.673-.706-.275-.122-3.028-.92-4.74-.95-1.714-.032-24.685-.645-26.183-.676-.582.03-1.438.153-2.937 1.013z" fill="#D5F7BF"/><path d="M14.62 10.313s0 .03 0 0c-.183.43.062 1.595.307 2.148.244.552.764.644 1.529.644.734.03 31.474.829 32.239.829.734.03 1.07-.645 1.132-1.32.06-.522.091-1.074.03-1.442l-35.236-.86z" fill="#C1E7AB"/><path d="M24.806 2.24c0 1.719 0 4.757-.03 4.849-.031.123-.306-2.885-.551-4.757l-5.353 1.136.061 5.34c1.622.214 6.057.767 6.057.767l3.425-.583-.06-5.586-3.549-1.166zm8.167 3.56c-.122 1.013-.337 2.455-.367 2.517-.03.061 0-1.473-.03-2.547l-3.426.583-.062 3.222c.98.153 3.64.583 3.64.583l2.08-.276.092-3.376-1.927-.706z" fill="#1C1C1C"/><path d="M16.517 15.56l-.367 1.29 1.101-.031 1.254-1.228-1.988-.03zm29.547.736l.306 1.473-1.101-.061-1.193-1.442 1.988.03z" fill="#282828"/><path d="M66.405 10.773l.703-8.01-.52-.307-1.498-.89-6.607 4.542c.03.03 2.355 3.284 7.922 4.665z" fill="#AACF9A"/><path d="M64.725 3.79l-5.111 8.696.368.218 5.112-8.696-.37-.219z" fill="#1C1C1C"/><path d="M66.405 10.773l.703-8.01-.52-.307-1.498-.89-6.607 4.542c.03.03 3.15 1.934 7.922 4.665z" fill="#C1E7AB"/><path d="M65.977 2.088L62.275 8.38l-2.477-1.473 5.659-5.125.52.307zm.642.367l-2.325 7.089 2.11 1.227.704-8.009-.49-.307z" fill="#D5F7BF"/></g><defs><clipPath id="clip0"><path fill="#fff" d="M0 0h287v58H0z"/></clipPath></defs></svg>