<svg xmlns="http://www.w3.org/2000/svg" viewBox="0 0 77.4 58"><path fill="#C1E7AB" d="M4.3 32.2c-.6 3.3.4 10.6-2.7 13.8-2.2 2.3 10.3 4.1 11.4 2.6 1.1-1.6 2-14.2 6.6-14.5 4.6-.2 55.5-1.8 55.3-2.5-.1-.5-19.8-.3-38.8-.7-11.9-.3-23.5-1.3-29.7-1.3-.6 0-1.9 1.7-2.1 2.6z"/><path d="M44.6 42.9H43c-.1-2.7-.2-4.4-.6-6.8h-1.1c-.3 0-.6 0-.6.1-.1 0-.1.1-.1.1-.1-.6-.2-.8-.3-1.3h1.1c1.4 0 2.1 0 3.5-.1h.6c.1 0 .1-.1.1-.1.2.4.2.7.3 1.2-.1 0-.5-.1-1 0h-.8c.3 2.4.5 4.1.5 6.9zm2.3-3.4c-.1-.5 0-.9.1-1.3s.2-.8.4-1c.4-.6 1.1-.9 1.9-.9.9 0 1.6.2 2.3.8.6.5 1 1.3 1.1 2.2.1 1-.1 1.8-.6 2.5s-1.2 1-2.1 1.1c-.9 0-1.7-.2-2.2-.9-.5-.8-.8-1.6-.9-2.5zm1.3-.1c0 .3.1.5.2.8.1.2.2.5.4.6.3.4.7.6 1.2.5.5 0 .8-.2 1-.6.2-.4.3-.9.2-1.4-.1-.6-.3-1-.6-1.4-.3-.4-.8-.5-1.2-.5-.5 0-.8.2-1 .6-.1.4-.2.8-.2 1.4zm7.4 2.9v2.3c-.6 0-.8 0-1.4.1.2-2.8-.1-5.5-.9-8.4h1.3c0 .1.1.2.1.3.4-.3.8-.4 1.2-.5.4 0 .8 0 1.2.1.4.1.7.2 1 .5.7.5 1.2 1.2 1.3 2.3.1.7 0 1.4-.2 1.9s-.6.9-1 1.2c-.4.3-.9.4-1.3.4-.5-.1-1-.1-1.3-.2zm-.1-1.6c.3.2.7.4 1.2.4.8 0 1.2-.5 1.3-1.3v-.9c0-.3-.1-.6-.2-.7-.1-.2-.2-.3-.3-.5-.1-.1-.2-.2-.4-.3-.1-.1-.2-.2-.4-.2-.2-.1-.4-.1-.6-.1-.2 0-.4.1-.6.2-.2.1-.3.2-.5.4.3 1.2.4 1.8.5 3z"/><path fill="#1C1C1C" d="M4.1 37s-1.3.5-1.5 2.4c-.1 1.9.9 2.4.9 2.4l.6-4.8zm21.2 11.1c-5.4.1-9.7.2-10.8.2-3.1.1-9.8-.1-11.8-.7C.6 47 2 45.7 2 45.7c-2.8.6-3 4.2 1.3 4.9 2.7.4 11.9 0 22-.5-.2-.6-.2-1.3 0-2zm25.7-.7c-2.8.2-9.4.4-16.1.6.2.5.3 1.1.3 1.7 2.7-.1 5.4-.3 7.8-.4 6.3-.3 13.2-.8 19-1.3 0-.5.1-1 .3-1.4-4.1.3-8.4.6-11.3.8zm22.1-1.7c-.5.1-1.8.2-3.6.3.2.4.2.8.3 1.2 3.5-.4 5.6-.8 5.6-1-.1-.7-.5-.7-2.3-.5zM13.6 20.5s-3.7 6.3-4.4 9h1.5s4-8.8 4.8-9.2c.9-.4-1.9.2-1.9.2zm14.1.3l-2 9.5h1l2-9.5h-1zm8.9.4l1.3 9.4H40l-1.3-9.4h-2.1zm19.3.7l2 8.8h2l-2-8.8h-2z"/><path fill="#1C1C1C" d="M37.3 47.7c-.3-1.3-2.5-6.1-7.6-5.6s-6.8 6.1-6.8 6.1c-.7 3.4.6 9.1 7.4 8.8 7-.3 7.4-8 7-9.3zm-7 6.1c-3.9.2-4.6-3.1-4.2-5 0 0 .9-3.1 3.8-3.4 2.9-.3 4.1 2.4 4.3 3.2.2.6 0 5-3.9 5.2z"/><path fill="#1C1C1C" d="M28.7 49.3s.3-1.1 1.3-1.2c1-.1 1.4.8 1.5 1.1.1.2 0 1.7-1.3 1.8-1.4 0-1.6-1.1-1.5-1.7zm42.3-2c-.2-1-1.9-3.8-5.8-3.4-3.9.4-5.1 3.8-5.1 3.8-.6 2.6.5 7.1 5.7 6.9 5.1-.3 5.4-6.3 5.2-7.3zM65.6 52c-3 .1-3.5-2.4-3.2-3.9 0 0 .7-2.5 2.9-2.7 2.2-.2 3.2 1.9 3.3 2.5.1.6-.1 4-3 4.1z"/><path fill="#1C1C1C" d="M64.4 48.5s.2-.8 1-.9c.7-.1 1.1.6 1.1.8.1.2 0 1.4-1 1.4s-1.2-.8-1.1-1.3zM9.8 50.8s.1 4.4 5.1 4.2c5-.2 5.2-4.6 5.2-4.6l-10.3.4zm37.5-1.9s.2 4.1 4.8 3.8 4.7-4.3 4.7-4.3l-9.5.5zM34.2 35.8h-2.7v-.9h2.7v.9c.1-.1 0 0 0 0z"/><path fill="#1C1C1C" d="M58.5 47.4s1.6-2.7 3.2-3.2c1.6-.4 8-1.1 8.9 0 1 1.1 2 1.2 3.9 1.3 1.9.1-1.3 1.6-4.2 1.4-3-.2-.8-2.1-5-1.7-4.2.4-2.8 2.6-4.4 2.7-1.6.2-2.5.6-2.4-.5zm-34.8-2.6c1.2-1.4 3.5-3.4 6.4-3.5 2.8-.1 5 1.4 5.6 2.5 0 0-1.3-2.9-5.6-2.9s-6.4 3.9-6.4 3.9zm11.7-23.5s1.2.1 1.5 2.1l-.3-2-1.2-.1zm19.6.9s1.2.1 1.5 2.1l-.3-2-1.2-.1zm-45.9 7s-2.1-.3-2.9 0S5 31 7.5 31.3c2.1.2 3.8.3 6.9.3 4.2 0 5.1 0 9.2-.1 4.8-.1 48.8.4 50.6.2 1.2-.2.9-.8 0-.9-1.5 0-49-.7-53.2-.9-4.3-.1-9.7-.6-11.9-.7zm51.7 14.6s5.1-1.4 8.8-.6c0 0-4-2.4-8.8.6zM25.7 55c-.8-.1-12.4-2.5-20.2-.5-7.8 2.1 19.1 5.4 38.2 2 0 0-13-1-18-1.5zm44-1.3c-.4 0-5.4-1.1-8.7-.2-3.4.9 8.2 2.3 16.5.9-.1-.1-5.7-.5-7.8-.7z"/><path fill="#1C1C1C" d="M56.5 52.4c-.4-.1-5.5-1.6-9-.3s8.5 3.4 17 1.3c0 0-5.7-.6-8-1zm1.7-42.3c-.2 1.7-.6 6.2-.6 6.4-.1.2.1-4.6.2-6.4l-4.5 1.6-.7 6.3c3.7.4 11.8 1.7 11.8 1.7l.7-6.4-6.9-3.2zM13.9 43.2c1.3 0 2.3-1 2.3-2.3 0-1.3-1-2.3-2.3-2.3-1.3 0-2.3 1-2.3 2.3 0 1.2 1 2.3 2.3 2.3zm-4-22.8s1.7-2.4 5.3-2.6C18.7 17.6 52 19 56 19.5c6.6.8 11.7 1.9 14.8 3.4 0-.1-48.9-2.2-60.9-2.5z"/><path fill="#AACF9A" d="M15.4 14.6c.1.3.4 1 1.1 1 1.5 0 30.2.8 31 .8.8 0 1.2-.5 1.2-.9l-33.3-.9z"/><path fill="#C1E7AB" d="M15.4 14.6l33.2.9-1.3-1.8-30.5-1-1.4 1.9z"/><path fill="#D5F7BF" d="M49.6 5.2C49.9 2.6 48.3.8 46 .7 43.5.6 22.8.1 19.8 0c-3.1-.1-4.3 2.1-4.5 4.3-.2 2.2-.9 4.8 3.1 5.6 4 .8 26.6 1.5 28.7.7 2.1-.8 2.2-3.5 2.5-5.4z"/><path fill="#C1E7AB" d="M16.8 5.5c.2-2.7.9-4.2 2.8-4.1 1.9 0 24.3.6 25.8.7 1.5 0 3.2 1.2 2.6 4.3-.6 3.1-.6 3.4-2.4 3.9-1.8.4-25.7-.7-26.8-.7-1.1 0-1.9-.5-2-1.3-.2-1 0-2.8 0-2.8z"/><path fill="#AACF9A" d="M13.1 4.8c.1-.7.6-1 1.5-1.1.6-.1 1.9-.1 2.4.3s.8 3.2 1.2 4.7c-.5.8-1.1 3.8-1.1 3.8l-1.6 2.1c-.1 0-3.3-4-2.4-9.8zm38.5 1c-.1-.7-.6-1-1.5-1.2-.6-.1-1.9-.2-2.4.2-.5.3-1 3.3-1.4 4.8.4.8.9 3.7.9 3.7l1.5 2.2c0-.1 3.4-3.9 2.9-9.7z"/><path fill="#C1E7AB" d="M14.7 3.7h-.2c-.9.1-1.4.4-1.5 1.1-.9 5.7 2.4 9.7 2.4 9.7l1.1-1.4c-1-1.3-2.3-6.2-1.8-9.4zm36.9 2.1c-.1-.7-.6-1-1.4-1.2.2 2.9-1.3 8-2.5 9.3l1.1 1.5c-.1 0 3.3-3.8 2.8-9.6z"/><path fill="#D5F7BF" d="M14.7 4.6c.5 0 1.8-.4 2.4-.5L17 4c-.5-.4-1.8-.4-2.4-.3-.8.1-1.3.3-1.5.9.5 0 1.3.1 1.6 0zm36.8 1c-.2-.5-.6-.8-1.4-.9-.6-.1-1.9-.2-2.4.2l-.1.1c.6.2 1.9.6 2.4.6h1.5zm-36.2 4c-.3.2-.6.3-.7.7-.2.4.1 1.6.3 2.1.2.6.8.6 1.5.6s31.5.8 32.2.8c.7 0 1.1-.6 1.1-1.3.1-.6.1-1.4 0-1.7-.1-.3-.4-.6-.7-.7-.3-.1-3-.9-4.7-1-1.7 0-24.7-.6-26.2-.7-.4.3-1.3.4-2.8 1.2z"/><path fill="#C1E7AB" d="M14.6 10.3c-.2.4.1 1.6.3 2.1.2.6.8.6 1.5.6s31.5.8 32.2.8c.7 0 1.1-.6 1.1-1.3.1-.5.1-1.1 0-1.4l-35.1-.8z"/><path fill="#1C1C1C" d="M24.8 2.2V7c0 .1-.3-2.9-.6-4.8l-5.4 1.1.1 5.3c1.7.4 6.1 1 6.1 1l3.4-.6-.1-5.6-3.5-1.2zM33 5.8c-.1 1-.3 2.5-.4 2.5V5.8l-3.4.6-.1 3.2c1 .2 3.6.6 3.6.6l2.1-.3.1-3.4-1.9-.7z"/><path fill="#282828" d="M16.5 15.6l-.4 1.3h1.1l1.3-1.2-2-.1zm29.6.7l.3 1.5-1.1-.1-1.2-1.4h2z"/><path fill="#AACF9A" d="M66.4 10.8l.7-8-.5-.3-1.5-.9-6.6 4.5s2.3 3.3 7.9 4.7z"/><path fill="#1C1C1C" d="M64.7 3.8l-5.1 8.7.4.2L65.1 4l-.4-.2z"/><path fill="#C1E7AB" d="M66.4 10.8l.7-8-.5-.3-1.5-.9-6.6 4.5s3.1 1.9 7.9 4.7z"/><path fill="#D5F7BF" d="M66 2.1l-3.7 6.3-2.5-1.5 5.7-5.1.5.3zm.6.4l-2.3 7.1 2.1 1.2.7-8-.5-.3z"/></svg>