<svg width="45" height="31" fill="none" xmlns="http://www.w3.org/2000/svg"><path d="M33.528 19.585a5.602 5.602 0 0 0-5.596 5.596 5.602 5.602 0 0 0 5.596 5.596 5.602 5.602 0 0 0 5.596-5.596 5.602 5.602 0 0 0-5.596-5.596zm0 8.394a2.8 2.8 0 0 1-2.798-2.798 2.8 2.8 0 0 1 2.798-2.798 2.8 2.8 0 0 1 2.798 2.798 2.8 2.8 0 0 1-2.798 2.798zM14.41 19.585a5.602 5.602 0 0 0-5.597 5.596 5.602 5.602 0 0 0 5.596 5.596 5.602 5.602 0 0 0 5.596-5.596 5.602 5.602 0 0 0-5.596-5.596zm0 8.394a2.8 2.8 0 0 1-2.799-2.798 2.8 2.8 0 0 1 2.798-2.798 2.801 2.801 0 0 1 2.798 2.798 2.8 2.8 0 0 1-2.798 2.798zM37.296 3.568a1.4 1.4 0 0 0-1.25-.77h-7.368v2.798h6.505l3.81 7.576 2.5-1.257-4.197-8.347z" fill="#2A292E"/><path d="M29.331 23.829H18.746v2.797H29.33V23.83zm-19.119 0h-4.85a1.399 1.399 0 1 0 0 2.797h4.85a1.399 1.399 0 1 0 0-2.797zM44.1 15.277l-2.752-3.544a1.397 1.397 0 0 0-1.105-.542H30.077V1.4c0-.774-.626-1.4-1.399-1.4H5.363a1.399 1.399 0 1 0 0 2.798h21.916v9.792a1.4 1.4 0 0 0 1.4 1.4h10.879l2.037 2.624v7.215h-3.87a1.399 1.399 0 1 0 0 2.797h5.27c.772 0 1.398-.626 1.398-1.399v-9.093a1.4 1.4 0 0 0-.294-.857zM10.119 16.74H3.684a1.399 1.399 0 1 0 0 2.799h6.435a1.399 1.399 0 1 0 0-2.798zm3.218-5.502H1.399a1.399 1.399 0 1 0 0 2.798h11.938a1.399 1.399 0 1 0 0-2.798z" fill="#2A292E"/><path d="M15.621 5.735H3.684a1.399 1.399 0 1 0 0 2.798h11.938a1.399 1.399 0 1 0 0-2.798z" fill="#2A292E"/></svg>