<svg xmlns="http://www.w3.org/2000/svg" viewBox="0 0 45 31"><path fill="#C38E68" d="M33.5 19.6c-3.1 0-5.6 2.5-5.6 5.6 0 3.1 2.5 5.6 5.6 5.6 3.1 0 5.6-2.5 5.6-5.6 0-3.1-2.5-5.6-5.6-5.6zm0 8.4c-1.5 0-2.8-1.3-2.8-2.8 0-1.5 1.3-2.8 2.8-2.8 1.5 0 2.8 1.3 2.8 2.8 0 1.5-1.2 2.8-2.8 2.8zm-19.1-8.4c-3.1 0-5.6 2.5-5.6 5.6 0 3.1 2.5 5.6 5.6 5.6s5.6-2.5 5.6-5.6c0-3.1-2.5-5.6-5.6-5.6zm0 8.4c-1.5 0-2.8-1.3-2.8-2.8 0-1.5 1.3-2.8 2.8-2.8 1.5 0 2.8 1.3 2.8 2.8 0 1.5-1.2 2.8-2.8 2.8zM37.3 3.6c-.2-.5-.7-.8-1.3-.8h-7.4v2.8h6.5l3.8 7.6 2.5-1.3-4.1-8.3z"/><path fill="#C38E68" d="M29.3 23.8H18.7v2.8h10.6v-2.8zm-19.1 0H5.4c-.8 0-1.4.6-1.4 1.4 0 .8.6 1.4 1.4 1.4h4.8c.8 0 1.4-.6 1.4-1.4 0-.7-.6-1.4-1.4-1.4zm33.9-8.5l-2.8-3.5c-.3-.3-.7-.5-1.1-.5H30.1V1.4c0-.8-.6-1.4-1.4-1.4H5.4C4.6 0 4 .6 4 1.4c0 .8.6 1.4 1.4 1.4h21.9v9.8c0 .8.6 1.4 1.4 1.4h10.9l2 2.6v7.2h-3.9c-.8 0-1.4.6-1.4 1.4 0 .8.6 1.4 1.4 1.4H43c.8 0 1.4-.6 1.4-1.4v-9.1c0-.3-.1-.6-.3-.8zm-34 1.4H3.7c-.8 0-1.4.6-1.4 1.4 0 .8.6 1.4 1.4 1.4h6.4c.8 0 1.4-.6 1.4-1.4 0-.7-.6-1.4-1.4-1.4zm3.2-5.5H1.4c-.8 0-1.4.6-1.4 1.4 0 .8.6 1.4 1.4 1.4h11.9c.8 0 1.4-.6 1.4-1.4 0-.7-.6-1.4-1.4-1.4z"/><path fill="#C38E68" d="M15.6 5.7H3.7c-.8 0-1.4.6-1.4 1.4 0 .8.6 1.4 1.4 1.4h11.9c.8 0 1.4-.6 1.4-1.4 0-.7-.6-1.4-1.4-1.4z"/></svg>