<svg xmlns="http://www.w3.org/2000/svg" viewBox="-26.5 -25.5 100 100"><circle fill="#FFF" cx="23.5" cy="24.5" r="50"/><path fill="#2A292E" d="M45.3 22.4c-5.7-6.5-3-2.4-3.5-2.1-.5.4.6 1.5 1.7 3.4.3.5.4 1.2 0 1.6-2.8 3.5-6.4 6.2-10.6 7.8 2.2-2.3 3.5-5.3 3.5-8.6s-1.3-6.4-3.4-8.6c2.4.9 4.6 2.2 6.6 3.8.2.2 1.8 1.4 2 1.6 2 2 .8.9 1.2.4.4-.5-.5-2.7-1-3.1-.3-.2-.5-.5-.8-.7-4.9-4-11.1-6.1-17.5-6.1-8.6 0-16.5 3.8-21.8 10.5-1 1.3-1 3.1 0 4.4C7 33.4 14.9 37.2 23.5 37.2c8.6 0 16.5-3.8 21.8-10.5 1-1.2 1-3.1 0-4.3zm-41.8 3c-.4-.5-.4-1.2 0-1.6 2.8-3.5 6.4-6.2 10.6-7.8-2.2 2.3-3.5 5.3-3.5 8.6s1.3 6.4 3.5 8.6c-4.2-1.6-7.9-4.3-10.6-7.8zm20 9.6c-5.9 0-10.6-4.7-10.6-10.4s4.8-10.4 10.6-10.4 10.6 4.7 10.6 10.4S29.3 35 23.5 35z"/><path fill="#2A292E" d="M23.5 19.8c-2.7 0-4.9 2.2-4.9 4.8s2.2 4.8 4.9 4.8 4.9-2.2 4.9-4.8-2.2-4.8-4.9-4.8zm0 7.3c-1.4 0-2.6-1.1-2.6-2.5s1.2-2.5 2.6-2.5 2.6 1.1 2.6 2.5c-.1 1.4-1.2 2.5-2.6 2.5zm0-26.2c-.6 0-1.1.5-1.2 1.1v4.2c0 .6.5 1.1 1.1 1.1.6 0 1.1-.5 1.2-1.1V2c0-.6-.5-1.1-1.1-1.1zm0 40.9c-.6 0-1.1.5-1.2 1.1v4.2c0 .6.5 1.1 1.1 1.1.6 0 1.1-.5 1.2-1.1v-4.2c0-.6-.5-1.1-1.1-1.1zm17-34c-.5-.4-1.2-.4-1.6 0l-2.1 2.1c-.4.4-.5 1.1 0 1.6.2.2.5.3.8.3.3 0 .6-.1.8-.3l2.1-2.1c.5-.4.5-1.1 0-1.6zM10.2 37.6c-.5-.4-1.2-.4-1.6 0l-2.1 2.1c-.4.4-.5 1.1 0 1.6.5.4 1.2.4 1.6 0l2.1-2.1c.4-.4.4-1.1 0-1.6zm0-27.7L8 7.8c-.5-.4-1.2-.4-1.6 0-.4.4-.4 1.2 0 1.6l2.1 2.1c.2.2.5.3.8.3.3 0 .6-.1.8-.3.5-.4.5-1.1.1-1.6zm30.3 29.8l-2.1-2.1c-.5-.4-1.2-.4-1.6 0-.4.4-.5 1.1 0 1.6l2.1 2.1c.5.4 1.2.4 1.6 0 .5-.4.5-1.1 0-1.6z"/></svg>