<?xml version="1.0" encoding="utf-8"?>
<!-- Generator: Adobe Illustrator 17.1.0, SVG Export Plug-In . SVG Version: 6.00 Build 0)  -->
<!DOCTYPE svg PUBLIC "-//W3C//DTD SVG 1.1//EN" "http://www.w3.org/Graphics/SVG/1.1/DTD/svg11.dtd">
<svg version="1.1" id="Слой_1" xmlns="http://www.w3.org/2000/svg" xmlns:xlink="http://www.w3.org/1999/xlink" x="0px" y="0px"
	 viewBox="0 44.4 105.5 79" enable-background="new 0 44.4 105.5 79" xml:space="preserve">
<path fill="#C1E7AB" d="M99.6,88.2c0.8,4.6-0.5,14.5,3.7,18.9c3,3.2-14,5.6-15.5,3.5c-1.5-2.1-2.7-19.4-9-19.7
	c-6.3-0.3-75.6-2.4-75.3-3.5c0.2-0.6,27-0.4,52.8-1c16.2-0.4,32-1.7,40.5-1.7C97.6,84.7,99.4,87,99.6,88.2z"/>
<path d="M30.5,102.8c-0.3,0-0.9,0-1.9,0c-0.1,0-0.2,0-0.2,0c-0.1-3.7-0.3-6-0.9-9.2c-0.6,0-0.9,0-1.5,0c-0.5,0-0.7,0-0.8,0.1
	s-0.1,0.1-0.2,0.1c0,0,0,0,0,0c-0.1-0.8-0.2-1.1-0.4-1.8c0.2,0,0.7,0,1.5,0c2,0,2.9,0,4.8-0.1c0.4,0,0.7,0,0.7,0
	c0.1,0,0.1-0.1,0.2-0.1c0,0,0,0,0,0c0.2,0.6,0.3,0.9,0.5,1.7c0,0,0,0,0,0c-0.2,0-0.6-0.1-1.3,0c-0.5,0-0.7,0-1.1,0
	C30.2,96.7,30.4,99,30.5,102.8z"/>
<path d="M33.6,98.1c-0.1-0.6,0-1.3,0.1-1.8c0.1-0.5,0.3-1,0.6-1.4c0.6-0.9,1.5-1.3,2.6-1.3c1.2,0,2.2,0.3,3.1,1
	c0.8,0.7,1.4,1.7,1.5,3.1c0.2,1.3-0.1,2.5-0.7,3.3c-0.7,1-1.7,1.4-2.9,1.5c-1.2,0-2.2-0.3-3-1.2C34.1,100.5,33.7,99.4,33.6,98.1z
	 M35.4,98c0,0.4,0.1,0.7,0.2,1c0.1,0.3,0.3,0.6,0.5,0.9c0.5,0.5,1,0.8,1.7,0.7c0.6,0,1.1-0.3,1.4-0.8c0.3-0.5,0.4-1.2,0.3-2
	c-0.1-0.8-0.4-1.4-0.8-1.9c-0.5-0.5-1-0.7-1.7-0.7c-0.7,0-1.1,0.3-1.4,0.8C35.4,96.7,35.3,97.2,35.4,98z"/>
<path d="M45.4,101.9c0,1,0,1.4,0,2.3c0,0.4,0,0.7,0,0.8c-0.7,0-1.1,0-1.9,0.1c0.2-3.8-0.1-7.5-1.2-11.4c0.7,0,1.1,0,1.8,0
	c0,0.2,0.1,0.3,0.1,0.5c0.5-0.4,1-0.6,1.6-0.6c0.6,0,1.1,0,1.6,0.2c0.5,0.1,1,0.3,1.4,0.6c1,0.6,1.6,1.7,1.8,3.1
	c0.2,1,0,1.8-0.3,2.6c-0.3,0.7-0.8,1.2-1.4,1.6c-0.5,0.4-1.2,0.5-1.8,0.6C46.5,102.2,45.9,102.1,45.4,101.9z M45.3,99.8
	c0.4,0.3,1,0.5,1.6,0.5c1,0,1.7-0.6,1.8-1.7c0-0.4,0-0.8,0-1.2c0-0.4-0.2-0.8-0.3-1c-0.1-0.3-0.3-0.5-0.4-0.6
	c-0.2-0.2-0.3-0.3-0.5-0.4c-0.2-0.1-0.3-0.2-0.5-0.3C46.7,95,46.4,95,46.1,95c-0.3,0-0.5,0.1-0.8,0.2c-0.3,0.1-0.5,0.3-0.6,0.5
	C45,97.3,45.1,98.2,45.3,99.8z"/>
<path fill="#1C1C1C" d="M99.9,94.8c0,0,1.8,0.6,2,3.3c0.1,2.6-1.2,3.3-1.2,3.3L99.9,94.8z"/>
<path fill="#1C1C1C" d="M71.1,109.9c7.3,0.2,13.2,0.3,14.7,0.3c4.2,0.1,13.4-0.1,16.1-1c2.7-0.8,0.8-2.6,0.8-2.6
	c3.8,0.8,4,5.8-1.8,6.6c-3.7,0.6-16.2,0-30-0.7C71.2,111.8,71.3,110.8,71.1,109.9z"/>
<path fill="#1C1C1C" d="M36.1,108.9c3.9,0.3,12.7,0.5,22,0.8c-0.3,0.7-0.5,1.5-0.4,2.3c-3.7-0.2-7.3-0.4-10.7-0.5
	c-8.7-0.3-18.1-1-26-1.6c0-0.7-0.1-1.3-0.4-1.9C26.2,108.2,32,108.6,36.1,108.9z"/>
<path fill="#1C1C1C" d="M5.9,106.7c0.7,0.1,2.5,0.3,5,0.5c-0.2,0.5-0.3,1.1-0.4,1.7c-4.7-0.5-7.7-1-7.6-1.4
	C3,106.4,3.5,106.3,5.9,106.7z"/>
<path fill="#1C1C1C" d="M86.9,72.3c0,0,5,8.5,6,12.2h-2c0,0-5.4-12-6.5-12.5C83.1,71.5,86.9,72.3,86.9,72.3z"/>
<path fill="#1C1C1C" d="M67.7,72.8l2.8,12.9h-1.4l-2.8-12.9H67.7z"/>
<path fill="#1C1C1C" d="M55.7,73.3l-1.7,12.8h-3l1.8-12.8H55.7z"/>
<path fill="#1C1C1C" d="M29.3,74.3l-2.7,12h-2.7l2.7-12H29.3z"/>
<path fill="#1C1C1C" d="M54.7,109.3c0.5-1.8,3.4-8.3,10.4-7.6c7,0.7,9.2,8.3,9.2,8.3c1,4.6-0.8,12.5-10.1,12
	C54.7,121.6,54.2,111.1,54.7,109.3z M64.2,117.6c5.3,0.3,6.3-4.2,5.7-6.9c0,0-1.3-4.3-5.2-4.7c-4-0.4-5.6,3.3-5.9,4.3
	C58.7,111.4,58.9,117.4,64.2,117.6z"/>
<path fill="#1C1C1C" d="M66.4,111.5c0,0-0.4-1.5-1.7-1.6c-1.3-0.1-1.9,1.1-2,1.5c-0.1,0.3,0,2.4,1.8,2.4
	C66.2,113.8,66.5,112.4,66.4,111.5z"/>
<path fill="#1C1C1C" d="M8.8,108.7c0.3-1.4,2.6-5.2,7.9-4.6c5.3,0.5,7,5.1,7,5.1c0.7,3.6-0.6,9.7-7.7,9.4
	C8.9,118.3,8.5,110.1,8.8,108.7z M16.2,115.2c4,0.2,4.8-3.3,4.4-5.3c0,0-1-3.3-4-3.6c-3-0.3-4.3,2.6-4.5,3.3
	C11.9,110.4,12.1,115,16.2,115.2z"/>
<path fill="#1C1C1C" d="M17.7,110.4c0,0-0.3-1.1-1.3-1.3c-1-0.1-1.5,0.9-1.5,1.1c-0.1,0.3,0,1.8,1.4,1.9S17.9,111.1,17.7,110.4z"/>
<path fill="#1C1C1C" d="M92.2,113.5c0,0-0.1,6-7,5.8s-7.1-6.3-7.1-6.3L92.2,113.5z"/>
<path fill="#1C1C1C" d="M41,111c0,0-0.2,5.5-6.5,5.2c-6.3-0.3-6.4-5.9-6.4-5.9L41,111z"/>
<path fill="#1C1C1C" d="M58.9,93.1h3.6c0,0,0,0,0,0v-1.2c0,0,0,0,0,0h-3.6c0,0,0,0,0,0L58.9,93.1C58.8,93,58.9,93.1,58.9,93.1z"/>
<path fill="#1C1C1C" d="M25.8,109c0,0-2.2-3.7-4.3-4.3c-2.2-0.6-10.8-1.5-12.1,0c-1.3,1.5-2.7,1.7-5.3,1.8c-2.5,0.2,1.7,2.2,5.7,1.9
	c4-0.3,1.1-2.9,6.8-2.3c5.7,0.6,3.7,3.5,6,3.7C24.7,110,26,110.5,25.8,109z"/>
<path fill="#1C1C1C" d="M73.2,105.4c-1.6-1.9-4.8-4.6-8.7-4.7c-3.8-0.1-6.8,1.9-7.6,3.3c0,0,1.8-4,7.6-4
	C70.3,100.1,73.2,105.4,73.2,105.4z"/>
<path fill="#1C1C1C" d="M57.3,73.4c0,0-1.6,0.1-2,2.8l0.4-2.8L57.3,73.4z"/>
<path fill="#1C1C1C" d="M30.6,74.6c0,0-1.6,0.1-2,2.8l0.4-2.8L30.6,74.6z"/>
<path fill="#1C1C1C" d="M93,84.2c0,0,2.9-0.4,4,0c1.1,0.4,1.7,2.4-1.7,2.8c-2.9,0.3-5.2,0.4-9.4,0.4c-5.7,0-7,0-12.5-0.1
	c-6.5-0.1-66.5,0.6-68.9,0.3c-1.7-0.2-1.2-1.1,0-1.2c2,0,66.7-0.9,72.5-1.2C82.8,84.9,90.1,84.3,93,84.2z"/>
<path fill="#1C1C1C" d="M22.6,104.1c0,0-7-1.9-12-0.9C10.6,103.2,16.1,100,22.6,104.1z"/>
<path fill="#1C1C1C" d="M70.5,119.3c1.1-0.1,16.9-3.5,27.5-0.6c10.6,2.8-26,7.4-52.1,2.7C46,121.4,63.6,120,70.5,119.3z"/>
<path fill="#1C1C1C" d="M10.6,117.5c0.5,0,7.3-1.5,11.8-0.3c4.6,1.2-11.2,3.2-22.4,1.2C0,118.4,7.6,117.8,10.6,117.5z"/>
<path fill="#1C1C1C" d="M28.5,115.8c0.5-0.1,7.5-2.2,12.2-0.4c4.7,1.8-11.6,4.6-23.1,1.7C17.6,117.1,25.5,116.3,28.5,115.8z"/>
<path fill="#1C1C1C" d="M26.2,58.1c0.2,2.3,0.7,8.5,0.9,8.7s-0.1-6.2-0.2-8.7l6.1,2.2l1,8.5c-5.1,0.5-16,2.3-16,2.3l-1-8.7
	L26.2,58.1z"/>
<path fill="#1C1C1C" d="M86.6,103.2c-1.7,0-3.1-1.4-3.1-3.1c0-1.7,1.4-3.1,3.1-3.1s3.1,1.4,3.1,3.1
	C89.7,101.8,88.3,103.2,86.6,103.2z"/>
<path fill="#1C1C1C" d="M91.9,72.2c0,0-2.3-3.3-7.2-3.6c-4.8-0.3-50.2,1.6-55.6,2.3c-9,1.1-15.9,2.6-20.2,4.6
	C9,75.5,75.7,72.5,91.9,72.2z"/>
<path fill="#AACF9A" d="M84.4,64.2c-0.1,0.5-0.5,1.3-1.5,1.3c-2,0-41.1,1.1-42.2,1.1c-1,0-1.7-0.7-1.7-1.3L84.4,64.2z"/>
<path fill="#C1E7AB" d="M84.4,64.2l-45.3,1.2l1.7-2.4l41.5-1.4L84.4,64.2z"/>
<path fill="#D5F7BF" d="M38,51.4c-0.4-3.6,1.7-6.1,5-6.1c3.2-0.1,31.4-0.8,35.6-0.9c4.2-0.1,5.8,2.8,6.1,5.9
	c0.3,3.1,1.2,6.5-4.2,7.6c-5.5,1.1-36.2,2.1-39.1,1C38.5,57.8,38.3,54,38,51.4z"/>
<path fill="#C1E7AB" d="M82.6,51.9c-0.2-3.6-1.2-5.7-3.8-5.6c-2.5,0.1-33,0.9-35.1,0.9c-2.1,0-4.4,1.6-3.6,5.9
	c0.8,4.3,0.8,4.7,3.2,5.3c2.4,0.6,35-0.9,36.5-1c1.5,0,2.6-0.7,2.8-1.8C82.8,54.4,82.6,51.9,82.6,51.9z"/>
<path fill="#AACF9A" d="M87.7,50.9c-0.2-1-0.9-1.4-2.1-1.5c-0.8-0.1-2.6-0.1-3.2,0.4c-0.7,0.5-1.1,4.3-1.6,6.4
	c0.6,1,1.5,5.2,1.5,5.2l2.2,2.8C84.4,64.2,88.9,58.8,87.7,50.9z"/>
<path fill="#AACF9A" d="M35.2,52.3c0.1-1,0.8-1.4,2-1.6c0.8-0.2,2.6-0.2,3.3,0.3s1.4,4.5,2,6.5c-0.5,1.1-1.2,5-1.2,5l-2.1,3
	C39.2,65.4,34.5,60.2,35.2,52.3z"/>
<path fill="#C1E7AB" d="M85.4,49.4c0.1,0,0.1,0,0.2,0c1.2,0.2,1.9,0.6,2.1,1.5c1.2,7.8-3.2,13.2-3.2,13.2l-1.5-2
	C84.4,60.4,86.2,53.8,85.4,49.4z"/>
<path fill="#C1E7AB" d="M35.2,52.3c0.1-1,0.8-1.4,2-1.6C37,54.6,39,61.6,40.6,63.4l-1.5,2C39.2,65.4,34.5,60.2,35.2,52.3z"/>
<path fill="#D5F7BF" d="M85.5,50.7c-0.6,0-2.5-0.5-3.3-0.7c0-0.1,0.1-0.1,0.2-0.2c0.7-0.5,2.4-0.5,3.2-0.4c1,0.2,1.7,0.5,2,1.2
	C86.9,50.7,85.9,50.7,85.5,50.7z"/>
<path fill="#D5F7BF" d="M35.3,51.9c0.2-0.7,0.9-1,1.9-1.3c0.8-0.2,2.6-0.2,3.3,0.3c0,0,0.1,0.1,0.2,0.2c-0.8,0.3-2.6,0.8-3.2,0.9
	C37,52,36,52,35.3,51.9z"/>
<path fill="#D5F7BF" d="M84.6,57.5c0.5,0.3,0.7,0.4,1,1c0.2,0.5-0.1,2.1-0.5,2.9c-0.3,0.8-1,0.9-2.1,0.9c-1,0-42.9,1.1-43.9,1.1
	c-1,0-1.5-0.9-1.5-1.8c-0.1-0.9-0.1-1.8,0-2.3c0.1-0.4,0.5-0.8,0.9-1c0.4-0.2,4.1-1.3,6.5-1.3c2.3,0,33.6-0.9,35.7-0.9
	C81.4,56.2,82.6,56.3,84.6,57.5z"/>
<path fill="#C1E7AB" d="M85.6,58.4C85.6,58.4,85.6,58.5,85.6,58.4c0.3,0.6-0.1,2.2-0.4,2.9c-0.3,0.8-1,0.9-2.1,0.9
	c-1,0-42.9,1.1-43.9,1.1c-1,0-1.5-0.9-1.5-1.8c-0.1-0.7-0.1-1.5,0-2L85.6,58.4z"/>
<path fill="#1C1C1C" d="M71.7,47.4c0,2.3,0,6.5,0,6.6c0,0.2,0.4-3.9,0.7-6.5l7.3,1.5l-0.1,7.3c-2.2,0.3-8.2,1-8.2,1l-4.7-0.8
	l0.1-7.6L71.7,47.4z"/>
<path fill="#1C1C1C" d="M60.6,52.3c0.2,1.4,0.5,3.3,0.5,3.4c0,0.1,0-2,0-3.5l4.7,0.8l0.1,4.4c-1.3,0.2-5,0.8-5,0.8l-2.8-0.4
	l-0.1-4.6L60.6,52.3z"/>
<path fill="#282828" d="M83,65.6l0.5,1.8l-1.5,0l-1.7-1.7L83,65.6z"/>
<path fill="#282828" d="M42.7,66.6l-0.4,2l1.5-0.1l1.6-2L42.7,66.6z"/>
<path fill="#AACF9A" d="M15,59l-1-10.9l0.7-0.4l2-1.2l9,6.2C25.8,52.7,22.6,57.2,15,59z"/>
<path fill="#1C1C1C" d="M17.3,49.5l7,11.8l-0.5,0.3l-7-11.8L17.3,49.5z"/>
<path fill="#C1E7AB" d="M15,59l-1-10.9l0.7-0.4l2-1.2l9,6.2C25.8,52.7,21.5,55.3,15,59z"/>
<path fill="#D5F7BF" d="M15.6,47.2l5,8.6l3.4-2l-7.7-7L15.6,47.2z"/>
<path fill="#D5F7BF" d="M14.7,47.7l3.2,9.7L15,59l-1-10.9L14.7,47.7z"/>
</svg>
