<svg width="36" height="36" viewBox="0 0 36 36" fill="none" xmlns="http://www.w3.org/2000/svg">
<path d="M35.8438 3.87425V32.1258C35.8438 34.0238 34.3597 35.5 32.4695 35.5H4.22581C2.35904 35.4922 0.851562 34.0394 0.851562 32.1179V3.87425C0.851562 1.99185 2.31998 0.5 4.22581 0.5H32.4773C34.3519 0.5 35.8438 1.96842 35.8438 3.87425ZM32.9303 32.1179V3.87425C32.9303 3.63992 32.7273 3.42122 32.4773 3.42122H31.7509H22.8711H17.6681H13.0402L4.95221 3.41341H4.22581C3.97587 3.41341 3.77279 3.63211 3.77279 3.86644V32.1179C3.77279 32.3523 3.97587 32.571 4.22581 32.571H32.4773C32.7273 32.5788 32.9303 32.3601 32.9303 32.1179ZM12.5833 12.5286V15.4185H6.84241V12.5286H12.5833ZM12.5833 18.3398V21.2532H6.84241V18.3398H12.5833ZM13.0402 3.42122H17.6681H8.41237H13.0402ZM29.8529 12.5286V15.4185H14.5438V12.5286H29.8529ZM29.8529 18.3398V21.2532H14.5438V18.3398H29.8529ZM29.8529 24.1666V27.08H22.089V24.1666H29.8529Z" fill="#C38E68"/>
</svg>
