<svg width="81" height="80" viewBox="0 0 81 80" fill="none" xmlns="http://www.w3.org/2000/svg">
<g clip-path="url(#clip0)">
<path d="M17.8745 48.3439L15.0713 58.7346L4.81903 58.9533C1.73233 53.3127 0 46.8595 0 40.0001C0 33.3595 1.62209 27.1095 4.50406 21.6095L13.6382 23.2657L17.6383 32.2658C16.8036 34.6876 16.3469 37.2814 16.3469 40.0001C16.3469 42.9377 16.8823 45.7502 17.8745 48.3439Z" fill="#FBBB00"/>
<path d="M79.9234 32.5311C80.3801 34.953 80.6321 37.453 80.6321 39.9999C80.6321 42.8592 80.3328 45.6561 79.7501 48.3592C77.7816 57.5311 72.6633 65.5311 65.5608 71.203L54.0644 70.6248L52.4423 60.5467C57.1511 57.7967 60.8363 53.5155 62.7733 48.3749H41.1979V32.5311H63.0725H79.9234Z" fill="#518EF8"/>
<path d="M65.5608 71.1873C58.6472 76.7029 49.8753 79.9998 40.316 79.9998C24.9613 79.9998 11.6066 71.4841 4.80328 58.9529L17.8745 48.3435C21.2762 57.3591 30.048 63.781 40.316 63.781C44.7256 63.781 48.8674 62.5935 52.4266 60.531L65.5608 71.1873Z" fill="#28B446"/>
<path d="M66.049 9.20312L52.9935 19.8125C49.3241 17.5312 44.9775 16.2188 40.316 16.2188C29.8118 16.2188 20.8824 22.9375 17.6382 32.2656L4.50403 21.5938C11.2129 8.76562 24.7408 0 40.316 0C50.0958 0 59.0724 3.45313 66.049 9.20312Z" fill="#F14336"/>
</g>
<defs>
<clipPath id="clip0">
<rect width="80.6321" height="80" fill="white"/>
</clipPath>
</defs>
</svg>
