<svg width="287" height="58" viewBox="0 0 287 58" fill="none" xmlns="http://www.w3.org/2000/svg">
<g clip-path="url(#clip0)">
<path d="M106.291 37.7773C106.291 36.6111 106.505 35.4757 106.902 34.4016C107.3 33.3275 107.881 32.4069 108.615 31.609C110.236 29.8905 112.347 29.0312 114.947 29.0312C117.516 29.0312 119.565 29.8598 121.095 31.4863C122.563 33.0514 123.266 35.0768 123.266 37.5318C123.266 40.0175 122.532 42.0736 121.034 43.7C119.443 45.4185 117.363 46.2778 114.733 46.2778C112.041 46.2778 109.93 45.4185 108.401 43.7307C106.963 42.1963 106.291 40.2016 106.291 37.7773ZM110.145 37.6852C110.145 38.3603 110.267 39.0048 110.481 39.6492C110.695 40.263 111.032 40.8154 111.429 41.2757C112.316 42.2577 113.479 42.718 114.916 42.718C116.231 42.718 117.302 42.2577 118.067 41.3064C118.801 40.3857 119.168 39.1889 119.168 37.7159C119.168 36.2122 118.77 35.0154 118.005 34.0947C117.18 33.1127 116.078 32.6217 114.641 32.6217C113.203 32.6217 112.072 33.1434 111.246 34.1868C110.512 35.1381 110.145 36.3043 110.145 37.6852Z" fill="#1C1C1C"/>
<path d="M188.693 41.8276C188.693 44.2212 188.723 45.7556 188.815 46.4614H184.655V29.7366H188.693V31.1789C190.161 30.0128 191.629 29.4297 193.158 29.4297C194.963 29.4297 196.278 30.2276 197.104 31.7927C197.93 30.9641 198.603 30.4117 199.153 30.1355C200.071 29.6752 200.958 29.4604 201.876 29.4604C202.793 29.4604 203.558 29.6138 204.2 29.9207C204.843 30.2276 205.363 30.6572 205.791 31.2403C206.617 32.3757 207.045 33.9408 207.045 35.9355V42.2879C207.045 44.0985 207.075 45.1725 207.137 45.5408C207.198 45.9091 207.259 46.1239 207.351 46.2466C207.442 46.3387 207.504 46.4614 207.595 46.5228L207.565 46.5842C206.708 46.5228 206.097 46.4614 205.699 46.4614H204.506C204.108 46.4614 203.619 46.4921 203.069 46.5228V37.8688C203.069 35.3831 202.671 33.8794 201.906 33.4191C201.662 33.2657 201.356 33.2043 201.019 33.2043C200.683 33.2043 200.377 33.235 200.102 33.327C199.826 33.4191 199.582 33.5419 199.367 33.726C198.97 34.0022 198.542 34.5852 198.022 35.4138C198.022 35.5059 198.052 35.5979 198.052 35.6593C198.052 35.7514 198.052 37.163 198.052 39.8942C198.052 42.6255 198.113 44.8043 198.236 46.4921C197.318 46.4921 196.553 46.4921 195.942 46.4921C195.299 46.4921 194.718 46.5228 194.137 46.5535V37.8995C194.137 36.1503 194.045 35.0456 193.831 34.5239C193.617 34.0022 193.403 33.6646 193.158 33.5112C192.914 33.3577 192.638 33.2657 192.302 33.2657C190.895 33.2657 189.733 33.9408 188.784 35.2911V41.8276H188.693Z" fill="#1C1C1C"/>
<path d="M210.44 38.1757C210.44 37.0096 210.623 35.8741 211.052 34.8001C211.449 33.726 212.03 32.8054 212.765 32.0075C214.386 30.2889 216.496 29.4297 219.096 29.4297C221.665 29.4297 223.715 30.2583 225.244 31.8847C226.712 33.4498 227.416 35.4752 227.416 37.9302C227.416 40.4159 226.651 42.472 225.183 44.0985C223.592 45.817 221.513 46.6763 218.882 46.6763C216.19 46.6763 214.08 45.817 212.55 44.1292C211.113 42.5948 210.44 40.6001 210.44 38.1757ZM214.294 38.0837C214.294 38.7588 214.416 39.4032 214.63 40.0477C214.845 40.6614 215.181 41.2138 215.579 41.6741C216.466 42.6561 217.628 43.1165 219.066 43.1165C220.381 43.1165 221.451 42.6561 222.216 41.7048C222.95 40.7842 223.317 39.5874 223.317 38.1143C223.317 36.6106 222.95 35.4138 222.185 34.4932C221.36 33.5112 220.258 33.0202 218.821 33.0202C217.383 33.0202 216.252 33.5419 215.426 34.5852C214.661 35.5366 214.294 36.7027 214.294 38.0837Z" fill="#1C1C1C"/>
<path d="M228.303 29.7363H232.799L236.684 40.7226L240.446 29.7363H244.851L238.305 46.4305H235.032L228.303 29.7363Z" fill="#1C1C1C"/>
<path d="M269.871 44.6511C269.871 45.5717 269.902 46.1548 269.932 46.431H265.895V22.6172H269.871V44.6511Z" fill="#1C1C1C"/>
<path d="M279.934 46.676C276.937 46.676 274.673 46.1236 273.174 45.0188C273.205 44.7119 273.236 44.3437 273.266 43.9447L273.419 42.7786C273.511 42.0114 273.541 41.5511 273.572 41.367C273.603 41.1828 273.603 41.0908 273.633 41.0601C273.633 41.0294 273.725 41.1215 273.878 41.3056C274.031 41.4897 274.337 41.7045 274.796 41.9807C275.254 42.2569 275.744 42.4717 276.356 42.6865C277.61 43.1162 278.925 43.331 280.301 43.331C282.136 43.331 283.054 42.7172 283.054 41.4897C283.054 41.0908 282.871 40.8146 282.534 40.5998C281.892 40.2929 280.974 40.0474 279.781 39.8633C278.558 39.7098 277.579 39.4643 276.784 39.1267C276.019 38.8199 275.377 38.4209 274.887 37.9606C273.97 37.132 273.541 36.0273 273.541 34.6463C273.541 32.9892 274.184 31.6696 275.468 30.7183C276.723 29.767 278.466 29.3066 280.699 29.3066C282.901 29.3066 284.798 29.9511 286.357 31.1786C286.296 31.4548 286.205 31.731 286.113 31.9765C285.868 32.6823 285.685 33.1733 285.562 33.4802L285.195 34.4315C285.165 34.5236 285.165 34.5543 285.134 34.5543C285.103 34.5543 285.042 34.4315 284.889 34.2167C284.216 33.4495 283.176 32.9278 281.769 32.6823C281.341 32.5902 280.882 32.5596 280.424 32.5596C278.497 32.5596 277.518 33.1426 277.518 34.3088C277.518 34.7077 277.732 35.0146 278.13 35.2294C278.894 35.6283 279.904 35.9352 281.219 36.1193C282.534 36.3035 283.513 36.5797 284.216 36.8865C284.889 37.2241 285.44 37.5924 285.868 38.0527C286.633 38.8812 287 39.986 287 41.367C287 42.8707 286.388 44.0982 285.195 45.0188C283.941 46.1849 282.198 46.676 279.934 46.676Z" fill="#1C1C1C"/>
<path d="M160.705 43.9461L157.463 37.072C158.013 36.7651 158.533 36.4276 158.962 36.0286C160.277 34.7704 160.95 33.2667 160.95 31.4868C160.95 29.2159 160.216 27.5281 158.778 26.4233C157.341 25.3186 155.138 24.7969 152.171 24.7969C150 24.7969 148.164 24.8889 146.696 25.0731V46.4625H150.917V40.0487V38.1461V34.7704V33.9112V28.6329C151.407 28.5715 151.927 28.5408 152.477 28.5408C153.915 28.5408 154.985 28.7556 155.719 29.1545C156.515 29.6149 156.912 30.4127 156.912 31.5482C156.912 32.6836 156.545 33.5122 155.781 34.0953C155.444 34.3408 155.016 34.5556 154.527 34.6784C154.037 34.8011 153.456 34.8625 152.752 34.8625C152.538 34.8625 152.324 34.8625 152.11 34.8318L154.251 39.7418L157.249 46.5545C159.451 46.3704 161.072 46.3704 162.112 46.5239L162.204 46.4318C161.837 46.217 161.347 45.3577 160.705 43.9461Z" fill="#1C1C1C"/>
<path d="M261.184 41.6429V35.8429C261.184 34.8302 261.031 33.9402 260.725 33.1424C259.747 30.6259 257.544 29.3984 254.088 29.3984C251.855 29.3984 249.806 29.8894 247.909 30.8715L248.399 34.4006L248.46 34.4312C248.919 34.0016 249.653 33.6334 250.662 33.2958C251.121 33.1424 251.61 33.0196 252.1 32.9275C252.589 32.8355 253.109 32.8048 253.599 32.8048C254.088 32.8048 254.608 32.8662 255.067 32.9582C256.443 33.2344 257.177 34.2471 257.269 35.9349C257.147 35.9043 256.994 35.9043 256.841 35.9043C256.688 35.9043 256.535 35.9043 256.413 35.8736L255.77 35.8429C252.956 35.8429 250.754 36.3953 249.102 37.5C247.604 38.5127 246.839 39.8016 246.839 41.336C246.839 43.0545 247.451 44.3741 248.674 45.264C249.286 45.7244 250.02 46.0619 250.876 46.2767C251.733 46.4916 252.803 46.6143 254.027 46.6143C254.883 46.6143 255.801 46.3995 256.81 46.0005C256.504 45.4789 255.984 44.3741 255.893 43.0545C255.342 43.208 254.792 43.2693 254.21 43.2693C253.109 43.2693 252.314 43.1159 251.733 42.7783C251.458 42.5942 251.243 42.3794 251.121 42.1339C250.999 41.8577 250.938 41.5815 250.938 41.2439C250.938 40.9064 251.029 40.5688 251.213 40.2619C251.855 39.2185 253.354 38.6968 255.679 38.6968H256.321C256.627 38.6968 256.933 38.7275 257.208 38.7889V42.1953C257.208 42.318 257.208 42.4101 257.208 42.5328C257.239 42.9625 257.422 44.4662 258.095 45.5402C258.462 46.1233 258.921 46.5529 259.502 46.8905L262.377 44.2513C261.612 43.7297 261.184 42.9011 261.184 41.6429Z" fill="#1C1C1C"/>
<path d="M180.74 38.8509C180.862 38.544 180.923 37.9609 180.923 37.1323C180.923 34.9228 180.25 33.1122 178.905 31.6699C177.528 30.1662 175.723 29.4297 173.46 29.4297C170.768 29.4297 168.627 30.2889 166.945 31.9768C166.18 32.7747 165.568 33.6953 165.14 34.7694C164.712 35.8434 164.498 36.9789 164.498 38.2371C164.498 40.7228 165.385 42.7482 167.159 44.344C168.933 45.9091 171.166 46.7069 173.858 46.7069C174.347 46.7069 174.867 46.6763 175.387 46.6149C177.192 46.4001 178.507 46.0318 179.302 45.4794L179.486 42.9937C179.516 42.5334 179.547 42.0731 179.577 41.6128C179.424 41.7355 179.18 41.889 178.874 42.0731C177.65 42.6868 176.213 42.9937 174.531 42.9937C172.909 42.9937 171.594 42.6868 170.585 42.0424C169.79 41.5514 169.239 40.9069 168.902 40.1091C168.902 40.1091 168.077 38.2064 168.719 36.3651C168.719 36.3345 168.75 36.3038 168.75 36.2731C168.872 35.8128 169.055 35.3831 169.3 34.9842C170.126 33.6032 171.38 32.8974 172.971 32.8974C175.02 32.8974 176.274 34.0329 176.702 36.3345C176.427 36.3651 176.121 36.3651 175.754 36.3958L174.439 36.4572C173.919 36.4572 173.399 36.4879 172.848 36.4879H171.931C171.564 36.4879 171.197 36.4879 170.799 36.4572H170.126C169.973 36.7948 169.514 37.9916 170.279 39.4646H174.255C177.497 39.3112 179.669 39.1577 180.74 38.8509Z" fill="#1C1C1C"/>
<path d="M101.488 46.5531C100.968 46.4917 99.6225 46.461 97.4508 46.461H96.9308V28.2938H93.6885C92.7403 28.2938 92.1592 28.3552 91.9757 28.4472C91.7921 28.5393 91.6698 28.6314 91.578 28.7234L91.5168 28.6928V24.4885L91.578 24.4271C91.9451 24.5499 92.9239 24.6113 94.4838 24.6113H104.761C105.709 24.6113 106.29 24.5499 106.474 24.4578C106.658 24.3658 106.78 24.2737 106.872 24.1816L106.933 24.2123V28.4166L106.872 28.4779C106.505 28.3552 105.526 28.2938 103.966 28.2938H101.519L101.488 46.5531Z" fill="#1C1C1C"/>
<path d="M139.967 31.0254C139.264 30.3196 138.468 29.8286 137.551 29.491C136.633 29.1534 135.593 29 134.4 29C133.207 29 131.984 29.4603 130.699 30.3503V29.3069H126.784V52.1693H130.76C130.73 51.8931 130.699 51.3101 130.699 50.3894V47.5968V45.6942V41.6741V41.1217V33.9714C131.127 33.5111 131.647 33.1735 132.259 32.8974C132.871 32.6212 133.483 32.4984 134.033 32.4984C134.614 32.4984 135.165 32.6212 135.715 32.8667C136.021 33.0201 136.327 33.2042 136.633 33.419C136.939 33.6339 137.184 33.9407 137.428 34.2783C137.673 34.6159 137.857 35.0455 138.009 35.5058C138.162 35.9661 138.224 36.6106 138.224 37.4085C138.224 38.2063 138.132 38.9429 137.918 39.6487C137.306 41.6741 135.93 42.7175 133.85 42.7175C133.115 42.7175 132.504 42.5947 131.923 42.3799V46.0624C132.596 46.2159 133.33 46.3386 134.155 46.3386C135.501 46.3386 136.725 46.0011 137.887 45.3566C139.172 44.6201 140.212 43.6381 140.946 42.4106C141.802 40.9683 142.23 39.3111 142.23 37.4698C142.23 34.6772 141.466 32.5291 139.967 31.0254Z" fill="#1C1C1C"/>
<path d="M4.31272 32.193C3.73157 35.538 4.67977 42.811 1.59046 46.0332C-0.642408 48.3655 11.8984 50.1761 12.9689 48.611C14.0395 47.0459 14.9265 34.3718 19.5757 34.1263C24.225 33.8808 75.061 32.3465 74.8774 31.5793C74.7551 31.1189 55.0569 31.3031 36.0928 30.8734C24.1638 30.5972 12.5713 29.6152 6.36207 29.6152C5.78091 29.6152 4.49625 31.2724 4.31272 32.193Z" fill="#C1E7AB"/>
<path d="M44.6267 42.8714C44.4432 42.8407 43.9843 42.8714 43.2197 42.8714C43.1585 42.8714 43.0973 42.8714 43.0361 42.8714C42.975 40.1709 42.8526 38.4524 42.3938 36.1201C41.935 36.1201 41.7209 36.1508 41.2621 36.1508C40.9256 36.1508 40.7115 36.1815 40.6503 36.2122C40.5892 36.2428 40.5586 36.2735 40.528 36.3042C40.528 36.3042 40.528 36.3042 40.4974 36.3042C40.4056 35.7518 40.3445 35.4756 40.1915 35.0153C40.3445 35.046 40.6809 35.046 41.2621 35.046C42.6997 35.0153 43.4032 35.0153 44.7796 34.9846C45.0855 34.9846 45.269 34.954 45.3302 34.954C45.3914 34.9233 45.422 34.8926 45.4525 34.8926C45.4525 34.8926 45.4525 34.8926 45.4831 34.8926C45.6361 35.3222 45.6972 35.5677 45.8196 36.1201C45.8196 36.1201 45.8196 36.1201 45.8196 36.1508C45.6972 36.1201 45.3608 36.0894 44.8408 36.1201C44.5043 36.1201 44.3514 36.1201 44.0149 36.1508C44.4432 38.4217 44.5655 40.1402 44.6267 42.8714Z" fill="black"/>
<path d="M46.9207 39.4658C46.8596 39.0055 46.8902 38.5452 46.9819 38.1463C47.0737 37.7473 47.196 37.3791 47.4101 37.1029C47.8384 36.4584 48.4807 36.1822 49.3371 36.1822C50.1936 36.1516 50.9583 36.3971 51.6006 36.9494C52.2123 37.4711 52.61 38.2076 52.7323 39.1896C52.8547 40.1717 52.6711 41.0002 52.1817 41.6447C51.6618 42.3505 50.9583 42.6881 50.0712 42.7187C49.1536 42.7494 48.4195 42.4732 47.8384 41.8288C47.3184 41.215 47.0125 40.4172 46.9207 39.4658ZM48.236 39.3738C48.2666 39.65 48.3278 39.8955 48.4195 40.141C48.5113 40.3865 48.6336 40.6013 48.7866 40.7854C49.123 41.1537 49.5207 41.3378 50.01 41.3071C50.4689 41.2764 50.8053 41.0923 51.05 40.6933C51.2641 40.3251 51.3559 39.8341 51.2947 39.251C51.2335 38.668 51.0194 38.2076 50.7136 37.8701C50.3771 37.5018 49.9489 37.3484 49.4901 37.3791C49.0007 37.3791 48.6642 37.5939 48.4501 37.9928C48.2666 38.3918 48.1748 38.8214 48.236 39.3738Z" fill="black"/>
<path d="M55.6075 42.2575C55.638 42.9634 55.638 43.3009 55.638 43.9454C55.638 44.2522 55.638 44.4364 55.638 44.5284C55.0875 44.5591 54.8122 44.5591 54.231 44.5898C54.384 41.7665 54.1698 39.066 53.344 36.212C53.864 36.212 54.1393 36.212 54.6898 36.1813C54.7204 36.3041 54.751 36.3655 54.7816 36.5189C55.1486 36.212 55.5463 36.0893 55.9439 36.0586C56.3721 36.0586 56.7392 36.0893 57.1062 36.1813C57.4733 36.2734 57.8097 36.4268 58.1156 36.6417C58.8191 37.102 59.2779 37.8692 59.4614 38.9126C59.5838 39.6184 59.492 40.2628 59.2167 40.8459C58.972 41.3369 58.6356 41.7358 58.1768 42.012C57.7791 42.2882 57.3203 42.411 56.8309 42.4417C56.3721 42.4417 55.9439 42.3803 55.6075 42.2575ZM55.4851 40.6925C55.791 40.938 56.1886 41.0607 56.6474 41.0607C57.4121 41.03 57.8709 40.6004 57.9933 39.8025C58.0238 39.5263 58.0238 39.2501 57.9933 38.9433C57.9627 38.6364 57.8709 38.3909 57.7791 38.2374C57.6874 38.0533 57.5956 37.8999 57.4733 37.7771C57.3509 37.6544 57.2286 37.5623 57.1062 37.4702C56.9839 37.3782 56.8615 37.3168 56.7392 37.2861C56.5251 37.194 56.311 37.1634 56.1274 37.1634C55.9133 37.1634 55.7298 37.2247 55.5157 37.3168C55.3322 37.4089 55.1792 37.5623 55.0569 37.7157C55.3016 38.8512 55.3627 39.4956 55.4851 40.6925Z" fill="black"/>
<path d="M4.06801 37.0098C4.06801 37.0098 2.72217 37.4701 2.59982 39.4034C2.50806 41.3368 3.48685 41.7971 3.48685 41.7971L4.06801 37.0098Z" fill="#1C1C1C"/>
<path d="M25.265 48.1202C19.9123 48.243 15.5689 48.335 14.4371 48.3657C11.3784 48.4578 4.58805 48.2737 2.63047 47.6599C0.642299 47.0461 2.01872 45.7266 2.01872 45.7266C-0.764714 46.2789 -0.948238 49.9615 3.36456 50.6059C6.08683 51.0356 15.2936 50.6059 25.3874 50.0842C25.1427 49.4705 25.0815 48.7647 25.265 48.1202Z" fill="#1C1C1C"/>
<path d="M50.9582 47.3517C48.1136 47.5359 41.5985 47.72 34.8387 47.9041C35.0834 48.4258 35.1752 49.0089 35.114 49.592C37.8363 49.4692 40.4668 49.3158 42.9444 49.2237C49.3065 48.9782 56.2192 48.5179 62.0308 48.0269C62.0002 47.5359 62.092 47.0449 62.3061 46.6152C58.238 46.8914 53.9252 47.1676 50.9582 47.3517Z" fill="#1C1C1C"/>
<path d="M73.1034 45.7264C72.614 45.7877 71.2987 45.9105 69.4635 46.0639C69.647 46.4322 69.7082 46.8618 69.7388 47.2915C73.1951 46.8925 75.3668 46.5243 75.3363 46.2788C75.2751 45.5116 74.908 45.4502 73.1034 45.7264Z" fill="#1C1C1C"/>
<path d="M13.6418 20.5008C13.6418 20.5008 9.94074 26.7612 9.26782 29.4617H10.7666C10.7666 29.4617 14.7429 20.685 15.5688 20.286C16.4252 19.9178 13.6418 20.5008 13.6418 20.5008Z" fill="#1C1C1C"/>
<path d="M27.7426 20.8379L25.6932 30.3204H26.7026L28.752 20.8379H27.7426Z" fill="#1C1C1C"/>
<path d="M36.5518 21.2363L37.8364 30.6575H40.0081L38.6623 21.2363H36.5518Z" fill="#1C1C1C"/>
<path d="M55.9133 21.9434L57.9015 30.7815H59.8897L57.9015 21.9434H55.9133Z" fill="#1C1C1C"/>
<path d="M37.3164 47.689C36.9799 46.4001 34.8082 41.5821 29.7001 42.1038C24.5921 42.6255 22.9404 48.18 22.9404 48.18C22.2063 51.5863 23.5215 57.3249 30.3731 57.0181C37.2552 56.7112 37.6528 48.9779 37.3164 47.689ZM30.2813 53.7958C26.3967 53.98 25.632 50.6964 26.0603 48.763C26.0603 48.763 27.0085 45.6329 29.8837 45.326C32.7895 45.0191 34.0129 47.7503 34.1965 48.4868C34.38 49.2234 34.1659 53.6117 30.2813 53.7958Z" fill="#1C1C1C"/>
<path d="M28.7214 49.2859C28.7214 49.2859 29.0273 48.2118 30.0061 48.1197C30.9849 48.0277 31.4131 48.9483 31.4743 49.1938C31.5354 49.4393 31.4743 50.943 30.159 50.9737C28.8438 51.0044 28.5991 49.9303 28.7214 49.2859Z" fill="#1C1C1C"/>
<path d="M70.9623 47.2601C70.7176 46.2474 69.0353 43.4548 65.1813 43.8844C61.2967 44.2834 60.0426 47.659 60.0426 47.659C59.492 50.2982 60.5014 54.7786 65.7012 54.5331C70.9011 54.2876 71.207 48.2728 70.9623 47.2601ZM65.5789 51.986C62.6119 52.1088 62.0614 49.5924 62.3672 48.0886C62.3672 48.0886 63.0707 45.6336 65.273 45.4188C67.4753 45.204 68.4235 47.3215 68.5459 47.8738C68.7294 48.4569 68.5459 51.8633 65.5789 51.986Z" fill="#1C1C1C"/>
<path d="M64.4166 48.4872C64.4166 48.4872 64.6613 47.6586 65.3954 47.5665C66.1295 47.4745 66.466 48.211 66.4966 48.3951C66.5577 48.5792 66.4966 49.7454 65.4872 49.776C64.4778 49.8067 64.2943 49.0088 64.4166 48.4872Z" fill="#1C1C1C"/>
<path d="M9.75732 50.7583C9.75732 50.7583 9.84909 55.1467 14.8654 54.9932C19.8817 54.8398 20.0652 50.3594 20.0652 50.3594L9.75732 50.7583Z" fill="#1C1C1C"/>
<path d="M47.349 48.9475C47.349 48.9475 47.5019 52.9983 52.1206 52.7528C56.7393 52.5073 56.831 48.4258 56.831 48.4258L47.349 48.9475Z" fill="#1C1C1C"/>
<path d="M34.1964 35.7521H31.5353C31.5048 35.7521 31.5048 35.7214 31.5048 35.7214V34.8315C31.5048 34.8008 31.5353 34.8008 31.5353 34.8008H34.1964C34.227 34.8008 34.227 34.8315 34.227 34.8315V35.7214C34.2576 35.7214 34.227 35.7521 34.1964 35.7521Z" fill="#1C1C1C"/>
<path d="M58.5132 47.4434C58.5132 47.4434 60.1038 44.7122 61.6943 44.2519C63.2848 43.8222 69.647 43.1778 70.5952 44.2519C71.574 45.3259 72.6139 45.4794 74.4798 45.5714C76.3456 45.6942 73.2257 47.1672 70.2587 46.9524C67.2918 46.7376 69.4329 44.8349 65.273 45.2646C61.1131 45.6942 62.5202 47.8423 60.899 47.9958C59.2779 48.1492 58.3603 48.5175 58.5132 47.4434Z" fill="#1C1C1C"/>
<path d="M23.7356 44.8357C24.8979 43.4547 27.2837 41.4293 30.0977 41.368C32.9118 41.3066 35.0835 42.7796 35.6952 43.823C35.6952 43.823 34.38 40.877 30.0977 40.877C25.8155 40.9076 23.7356 44.8357 23.7356 44.8357Z" fill="#1C1C1C"/>
<path d="M35.3893 21.3281C35.3893 21.3281 36.5822 21.3895 36.8575 23.3842L36.5822 21.3588L35.3893 21.3281Z" fill="#1C1C1C"/>
<path d="M54.9652 22.1582C54.9652 22.1582 56.1581 22.2196 56.4334 24.2143L56.1581 22.1889L54.9652 22.1582Z" fill="#1C1C1C"/>
<path d="M9.14554 29.2458C9.14554 29.2458 7.03502 28.9696 6.23975 29.2458C5.44448 29.522 4.95509 30.995 7.46324 31.2712C9.57376 31.5167 11.2561 31.5474 14.3454 31.5781C18.5664 31.6088 19.484 31.5781 23.5215 31.5167C28.2931 31.4553 72.3693 31.9463 74.1434 31.7008C75.3669 31.5474 75.061 30.8723 74.1434 30.8416C72.6752 30.8109 25.1732 30.1664 20.9216 29.9823C16.67 29.7675 11.3172 29.3379 9.14554 29.2458Z" fill="#1C1C1C"/>
<path d="M60.8379 43.8238C60.8379 43.8238 65.9766 42.4121 69.647 43.1793C69.647 43.1793 65.6401 40.8164 60.8379 43.8238Z" fill="#1C1C1C"/>
<path d="M25.6932 54.994C24.8674 54.9019 13.2748 52.4469 5.47505 54.5336C-2.3247 56.6204 24.5921 59.9654 43.7091 56.5283C43.7091 56.5283 30.7401 55.5463 25.6932 54.994Z" fill="#1C1C1C"/>
<path d="M69.6777 53.6733C69.3106 53.6427 64.3249 52.5686 60.9909 53.4892C57.6263 54.3792 69.2189 55.8215 77.4468 54.3485C77.4163 54.3485 71.8494 53.9188 69.6777 53.6733Z" fill="#1C1C1C"/>
<path d="M56.5252 52.4468C56.1581 52.3854 50.9889 50.851 47.5325 52.1706C44.0762 53.4902 56.0358 55.577 64.5084 53.4288C64.5084 53.3981 58.7581 52.7844 56.5252 52.4468Z" fill="#1C1C1C"/>
<path d="M58.2074 10.0664C58.0545 11.7235 57.6568 16.296 57.5651 16.4802C57.4733 16.6643 57.6568 11.9077 57.7486 10.1278L53.2829 11.7542L52.5793 18.0146C56.311 18.4135 64.3554 19.7331 64.3554 19.7331L65.0895 13.35L58.2074 10.0664Z" fill="#1C1C1C"/>
<path d="M13.8559 43.1793C15.1229 43.1793 16.15 42.1489 16.15 40.8778C16.15 39.6066 15.1229 38.5762 13.8559 38.5762C12.589 38.5762 11.5619 39.6066 11.5619 40.8778C11.5619 42.1489 12.589 43.1793 13.8559 43.1793Z" fill="#1C1C1C"/>
<path d="M9.9408 20.4079C9.9408 20.4079 11.6537 18.0142 15.2018 17.7994C18.7193 17.5846 52.0288 18.9962 56.0052 19.4873C62.612 20.3158 67.6589 21.4206 70.84 22.8629C70.8094 22.8322 21.8698 20.6534 9.9408 20.4079Z" fill="#1C1C1C"/>
<path d="M15.4464 14.5781C15.5382 14.9157 15.844 15.5294 16.517 15.5601C17.9852 15.5908 46.676 16.358 47.4712 16.358C48.2359 16.3887 48.6947 15.8363 48.6947 15.4374L15.4464 14.5781Z" fill="#AACF9A"/>
<path d="M15.4464 14.5779L48.6947 15.4371L47.4101 13.6572L16.9452 12.6445L15.4464 14.5779Z" fill="#C1E7AB"/>
<path d="M49.5512 5.18715C49.8571 2.54799 48.2665 0.737411 45.9113 0.676036C43.5255 0.61466 22.8486 0.062279 19.7592 0.000903366C16.6699 -0.0911601 15.5076 2.05699 15.2629 4.2972C15.0182 6.53741 14.3759 9.0845 18.3828 9.88238C22.3897 10.6803 44.9937 11.4168 47.1042 10.6189C49.1842 9.82101 49.3371 7.0591 49.5512 5.18715Z" fill="#D5F7BF"/>
<path d="M16.8228 5.52549C17.0064 2.85565 17.7405 1.32126 19.6063 1.38263C21.4721 1.44401 43.8619 2.02708 45.3913 2.05777C46.9207 2.08845 48.6336 3.2239 48.0218 6.35406C47.4101 9.48422 47.4101 9.7911 45.636 10.2207C43.8619 10.6504 19.9427 9.5456 18.811 9.51491C17.7099 9.48422 16.884 9.0239 16.7617 8.19533C16.6393 7.33607 16.8228 5.52549 16.8228 5.52549Z" fill="#C1E7AB"/>
<path d="M13.0607 4.81804C13.183 4.11222 13.703 3.80534 14.59 3.68259C15.2018 3.59053 16.4864 3.62121 16.9758 3.98947C17.4652 4.35772 17.8017 7.15031 18.1687 8.68471C17.7099 9.4519 17.0676 12.49 17.0676 12.49L15.4465 14.5768C15.4465 14.5768 12.2042 10.5567 13.0607 4.81804Z" fill="#AACF9A"/>
<path d="M51.57 5.83118C51.4782 5.12536 50.9888 4.78779 50.1018 4.63435C49.4901 4.5116 48.2054 4.48091 47.6854 4.81848C47.1654 5.15604 46.676 8.10208 46.2478 9.60578C46.6454 10.4037 47.1654 13.2883 47.1654 13.2883L48.6948 15.4672C48.6948 15.4365 52.1206 11.6005 51.57 5.83118Z" fill="#AACF9A"/>
<path d="M14.743 3.68359C14.6818 3.68359 14.6512 3.68359 14.59 3.71428C13.6724 3.83703 13.183 4.14391 13.0607 4.84973C12.2042 10.5577 15.4465 14.5778 15.4465 14.5778L16.5782 13.1354C15.4771 11.7852 14.1924 6.90582 14.743 3.68359Z" fill="#C1E7AB"/>
<path d="M51.57 5.83159C51.4782 5.12577 50.9888 4.81889 50.1324 4.63477C50.3159 7.51942 48.8171 12.6443 47.6548 13.9332L48.7253 15.4369C48.6948 15.4369 52.1205 11.6009 51.57 5.83159Z" fill="#C1E7AB"/>
<path d="M14.6825 4.63391C15.1413 4.60322 16.4872 4.26566 17.0989 4.11222C17.0683 4.05084 17.0377 4.02016 16.9765 3.98947C16.4872 3.62121 15.2025 3.59053 14.5907 3.68259C13.8261 3.80534 13.3367 4.02016 13.1226 4.54185C13.612 4.63391 14.3766 4.6646 14.6825 4.63391Z" fill="#D5F7BF"/>
<path d="M51.5089 5.55499C51.3253 5.03329 50.8665 4.78779 50.1018 4.63435C49.4901 4.5116 48.2054 4.48091 47.6855 4.81848C47.6549 4.84917 47.5937 4.87985 47.5631 4.94123C48.1749 5.12536 49.4901 5.5243 49.9489 5.58567C50.2854 5.58567 51.0195 5.61636 51.5089 5.55499Z" fill="#D5F7BF"/>
<path d="M15.3242 9.6377C14.9877 9.85251 14.7736 9.94458 14.6207 10.3435C14.4678 10.7425 14.7125 11.9086 14.9572 12.461C15.2019 13.0134 15.7218 13.1054 16.4865 13.1054C17.2206 13.1361 47.9608 13.934 48.7255 13.934C49.4596 13.9647 49.796 13.2895 49.8572 12.6144C49.9184 11.97 49.9489 11.2642 49.8572 10.9573C49.7654 10.6504 49.4596 10.4049 49.1843 10.2515C48.909 10.1287 46.1561 9.33082 44.4432 9.30013C42.7304 9.26944 19.7594 8.65569 18.2606 8.625C17.6794 8.65569 16.823 8.77844 15.3242 9.6377Z" fill="#D5F7BF"/>
<path d="M14.6206 10.3125C14.6206 10.3125 14.6206 10.3432 14.6206 10.3125C14.4371 10.7421 14.6818 11.9083 14.9265 12.4606C15.1712 13.013 15.6911 13.1051 16.4558 13.1051C17.1899 13.1358 47.9301 13.9337 48.6948 13.9337C49.4289 13.9644 49.7653 13.2892 49.8265 12.6141C49.8877 12.0924 49.9183 11.54 49.8571 11.1718L14.6206 10.3125Z" fill="#C1E7AB"/>
<path d="M24.8061 2.24023C24.8061 3.95875 24.8061 6.99685 24.7755 7.08891C24.7449 7.21166 24.4697 4.20425 24.225 2.3323L18.8722 3.46775L18.9334 8.80743C20.5545 9.02224 24.9896 9.57462 24.9896 9.57462L28.4154 8.99156L28.3542 3.40637L24.8061 2.24023Z" fill="#1C1C1C"/>
<path d="M32.973 5.80022C32.8506 6.81292 32.6365 8.25525 32.6059 8.31662C32.5753 8.378 32.6059 6.84361 32.5753 5.76953L29.1496 6.3526L29.0884 9.57482C30.0672 9.72826 32.7283 10.1579 32.7283 10.1579L34.8082 9.8817L34.9 6.50604L32.973 5.80022Z" fill="#1C1C1C"/>
<path d="M16.5171 15.5605L16.15 16.8494L17.2512 16.8187L18.5052 15.5912L16.5171 15.5605Z" fill="#282828"/>
<path d="M46.0642 16.2963L46.3701 17.7693L45.2689 17.708L44.076 16.2656L46.0642 16.2963Z" fill="#282828"/>
<path d="M66.4048 10.7728L67.1083 2.76323L66.5883 2.45635L65.0895 1.56641L58.4827 6.1082C58.5133 6.13889 60.8379 9.3918 66.4048 10.7728Z" fill="#AACF9A"/>
<path d="M64.7246 3.78938L59.6135 12.4863L59.9824 12.7045L65.0935 4.00758L64.7246 3.78938Z" fill="#1C1C1C"/>
<path d="M66.4048 10.7728L67.1083 2.76323L66.5883 2.45635L65.0895 1.56641L58.4827 6.1082C58.5133 6.13889 61.6332 8.04154 66.4048 10.7728Z" fill="#C1E7AB"/>
<path d="M65.9766 2.08813L62.2755 8.37913L59.798 6.90612L65.4566 1.78125L65.9766 2.08813Z" fill="#D5F7BF"/>
<path d="M66.6189 2.45508L64.2943 9.54397L66.4048 10.7715L67.1083 2.76196L66.6189 2.45508Z" fill="#D5F7BF"/>
</g>
<defs>
<clipPath id="clip0">
<rect width="287" height="58" fill="white"/>
</clipPath>
</defs>
</svg>
