<?xml version="1.0" encoding="utf-8"?>
<!-- Generator: Adobe Illustrator 17.1.0, SVG Export Plug-In . SVG Version: 6.00 Build 0)  -->
<!DOCTYPE svg PUBLIC "-//W3C//DTD SVG 1.1//EN" "http://www.w3.org/Graphics/SVG/1.1/DTD/svg11.dtd">
<svg version="1.1" id="Слой_1" xmlns="http://www.w3.org/2000/svg" xmlns:xlink="http://www.w3.org/1999/xlink" x="0px" y="0px"
	 viewBox="0 0 77.4 58" enable-background="new 0 0 77.4 58" xml:space="preserve">
<g>
	<g>
		<path fill="#C1E7AB" d="M4.3,32.2C3.7,35.5,4.7,42.8,1.6,46c-2.2,2.3,10.3,4.1,11.4,2.6c1.1-1.6,2-14.2,6.6-14.5
			c4.6-0.2,55.5-1.8,55.3-2.5c-0.1-0.5-19.8-0.3-38.8-0.7c-11.9-0.3-23.5-1.3-29.7-1.3C5.8,29.6,4.5,31.3,4.3,32.2z"/>
		<path d="M44.6,42.9c-0.2,0-0.6,0-1.4,0c-0.1,0-0.1,0-0.2,0c-0.1-2.7-0.2-4.4-0.6-6.8c-0.5,0-0.7,0-1.1,0c-0.3,0-0.6,0-0.6,0.1
			c-0.1,0-0.1,0.1-0.1,0.1c0,0,0,0,0,0c-0.1-0.6-0.2-0.8-0.3-1.3c0.2,0,0.5,0,1.1,0c1.4,0,2.1,0,3.5-0.1c0.3,0,0.5,0,0.6,0
			c0.1,0,0.1-0.1,0.1-0.1c0,0,0,0,0,0c0.2,0.4,0.2,0.7,0.3,1.2c0,0,0,0,0,0c-0.1,0-0.5-0.1-1,0c-0.3,0-0.5,0-0.8,0
			C44.4,38.4,44.6,40.1,44.6,42.9z"/>
		<path d="M46.9,39.5c-0.1-0.5,0-0.9,0.1-1.3c0.1-0.4,0.2-0.8,0.4-1c0.4-0.6,1.1-0.9,1.9-0.9c0.9,0,1.6,0.2,2.3,0.8
			c0.6,0.5,1,1.3,1.1,2.2c0.1,1-0.1,1.8-0.6,2.5c-0.5,0.7-1.2,1-2.1,1.1c-0.9,0-1.7-0.2-2.2-0.9C47.3,41.2,47,40.4,46.9,39.5z
			 M48.2,39.4c0,0.3,0.1,0.5,0.2,0.8c0.1,0.2,0.2,0.5,0.4,0.6c0.3,0.4,0.7,0.6,1.2,0.5c0.5,0,0.8-0.2,1-0.6c0.2-0.4,0.3-0.9,0.2-1.4
			c-0.1-0.6-0.3-1-0.6-1.4c-0.3-0.4-0.8-0.5-1.2-0.5c-0.5,0-0.8,0.2-1,0.6C48.3,38.4,48.2,38.8,48.2,39.4z"/>
		<path d="M55.6,42.3c0,0.7,0,1,0,1.7c0,0.3,0,0.5,0,0.6c-0.6,0-0.8,0-1.4,0.1c0.2-2.8-0.1-5.5-0.9-8.4c0.5,0,0.8,0,1.3,0
			c0,0.1,0.1,0.2,0.1,0.3c0.4-0.3,0.8-0.4,1.2-0.5c0.4,0,0.8,0,1.2,0.1c0.4,0.1,0.7,0.2,1,0.5c0.7,0.5,1.2,1.2,1.3,2.3
			c0.1,0.7,0,1.4-0.2,1.9c-0.2,0.5-0.6,0.9-1,1.2c-0.4,0.3-0.9,0.4-1.3,0.4C56.4,42.4,55.9,42.4,55.6,42.3z M55.5,40.7
			c0.3,0.2,0.7,0.4,1.2,0.4c0.8,0,1.2-0.5,1.3-1.3c0-0.3,0-0.6,0-0.9c0-0.3-0.1-0.6-0.2-0.7c-0.1-0.2-0.2-0.3-0.3-0.5
			c-0.1-0.1-0.2-0.2-0.4-0.3c-0.1-0.1-0.2-0.2-0.4-0.2c-0.2-0.1-0.4-0.1-0.6-0.1c-0.2,0-0.4,0.1-0.6,0.2c-0.2,0.1-0.3,0.2-0.5,0.4
			C55.3,38.9,55.4,39.5,55.5,40.7z"/>
		<path fill="#1C1C1C" d="M4.1,37c0,0-1.3,0.5-1.5,2.4c-0.1,1.9,0.9,2.4,0.9,2.4L4.1,37z"/>
		<path fill="#1C1C1C" d="M25.3,48.1c-5.4,0.1-9.7,0.2-10.8,0.2c-3.1,0.1-9.8-0.1-11.8-0.7C0.6,47,2,45.7,2,45.7
			c-2.8,0.6-3,4.2,1.3,4.9c2.7,0.4,11.9,0,22-0.5C25.1,49.5,25.1,48.8,25.3,48.1z"/>
		<path fill="#1C1C1C" d="M51,47.4c-2.8,0.2-9.4,0.4-16.1,0.6c0.2,0.5,0.3,1.1,0.3,1.7c2.7-0.1,5.4-0.3,7.8-0.4
			C49.3,49,56.2,48.5,62,48c0-0.5,0.1-1,0.3-1.4C58.2,46.9,53.9,47.2,51,47.4z"/>
		<path fill="#1C1C1C" d="M73.1,45.7c-0.5,0.1-1.8,0.2-3.6,0.3c0.2,0.4,0.2,0.8,0.3,1.2c3.5-0.4,5.6-0.8,5.6-1
			C75.3,45.5,74.9,45.5,73.1,45.7z"/>
		<path fill="#1C1C1C" d="M13.6,20.5c0,0-3.7,6.3-4.4,9h1.5c0,0,4-8.8,4.8-9.2C16.4,19.9,13.6,20.5,13.6,20.5z"/>
		<path fill="#1C1C1C" d="M27.7,20.8l-2,9.5h1l2-9.5H27.7z"/>
		<path fill="#1C1C1C" d="M36.6,21.2l1.3,9.4H40l-1.3-9.4H36.6z"/>
		<path fill="#1C1C1C" d="M55.9,21.9l2,8.8h2l-2-8.8H55.9z"/>
		<path fill="#1C1C1C" d="M37.3,47.7c-0.3-1.3-2.5-6.1-7.6-5.6c-5.1,0.5-6.8,6.1-6.8,6.1c-0.7,3.4,0.6,9.1,7.4,8.8
			C37.3,56.7,37.7,49,37.3,47.7z M30.3,53.8c-3.9,0.2-4.6-3.1-4.2-5c0,0,0.9-3.1,3.8-3.4c2.9-0.3,4.1,2.4,4.3,3.2
			C34.4,49.2,34.2,53.6,30.3,53.8z"/>
		<path fill="#1C1C1C" d="M28.7,49.3c0,0,0.3-1.1,1.3-1.2c1-0.1,1.4,0.8,1.5,1.1c0.1,0.2,0,1.7-1.3,1.8C28.8,51,28.6,49.9,28.7,49.3
			z"/>
		<path fill="#1C1C1C" d="M71,47.3c-0.2-1-1.9-3.8-5.8-3.4c-3.9,0.4-5.1,3.8-5.1,3.8c-0.6,2.6,0.5,7.1,5.7,6.9
			C70.9,54.3,71.2,48.3,71,47.3z M65.6,52c-3,0.1-3.5-2.4-3.2-3.9c0,0,0.7-2.5,2.9-2.7c2.2-0.2,3.2,1.9,3.3,2.5
			C68.7,48.5,68.5,51.9,65.6,52z"/>
		<path fill="#1C1C1C" d="M64.4,48.5c0,0,0.2-0.8,1-0.9c0.7-0.1,1.1,0.6,1.1,0.8c0.1,0.2,0,1.4-1,1.4C64.5,49.8,64.3,49,64.4,48.5z"
			/>
		<path fill="#1C1C1C" d="M9.8,50.8c0,0,0.1,4.4,5.1,4.2c5-0.2,5.2-4.6,5.2-4.6L9.8,50.8z"/>
		<path fill="#1C1C1C" d="M47.3,48.9c0,0,0.2,4.1,4.8,3.8s4.7-4.3,4.7-4.3L47.3,48.9z"/>
		<path fill="#1C1C1C" d="M34.2,35.8h-2.7c0,0,0,0,0,0v-0.9c0,0,0,0,0,0h2.7c0,0,0,0,0,0L34.2,35.8C34.3,35.7,34.2,35.8,34.2,35.8z"
			/>
		<path fill="#1C1C1C" d="M58.5,47.4c0,0,1.6-2.7,3.2-3.2c1.6-0.4,8-1.1,8.9,0c1,1.1,2,1.2,3.9,1.3c1.9,0.1-1.3,1.6-4.2,1.4
			c-3-0.2-0.8-2.1-5-1.7c-4.2,0.4-2.8,2.6-4.4,2.7C59.3,48.1,58.4,48.5,58.5,47.4z"/>
		<path fill="#1C1C1C" d="M23.7,44.8c1.2-1.4,3.5-3.4,6.4-3.5c2.8-0.1,5,1.4,5.6,2.5c0,0-1.3-2.9-5.6-2.9
			C25.8,40.9,23.7,44.8,23.7,44.8z"/>
		<path fill="#1C1C1C" d="M35.4,21.3c0,0,1.2,0.1,1.5,2.1l-0.3-2L35.4,21.3z"/>
		<path fill="#1C1C1C" d="M55,22.2c0,0,1.2,0.1,1.5,2.1l-0.3-2L55,22.2z"/>
		<path fill="#1C1C1C" d="M9.1,29.2c0,0-2.1-0.3-2.9,0S5,31,7.5,31.3c2.1,0.2,3.8,0.3,6.9,0.3c4.2,0,5.1,0,9.2-0.1
			c4.8-0.1,48.8,0.4,50.6,0.2c1.2-0.2,0.9-0.8,0-0.9c-1.5,0-49-0.7-53.2-0.9C16.7,29.8,11.3,29.3,9.1,29.2z"/>
		<path fill="#1C1C1C" d="M60.8,43.8c0,0,5.1-1.4,8.8-0.6C69.6,43.2,65.6,40.8,60.8,43.8z"/>
		<path fill="#1C1C1C" d="M25.7,55c-0.8-0.1-12.4-2.5-20.2-0.5c-7.8,2.1,19.1,5.4,38.2,2C43.7,56.5,30.7,55.5,25.7,55z"/>
		<path fill="#1C1C1C" d="M69.7,53.7c-0.4,0-5.4-1.1-8.7-0.2c-3.4,0.9,8.2,2.3,16.5,0.9C77.4,54.3,71.8,53.9,69.7,53.7z"/>
		<path fill="#1C1C1C" d="M56.5,52.4c-0.4-0.1-5.5-1.6-9-0.3c-3.5,1.3,8.5,3.4,17,1.3C64.5,53.4,58.8,52.8,56.5,52.4z"/>
		<path fill="#1C1C1C" d="M58.2,10.1c-0.2,1.7-0.6,6.2-0.6,6.4c-0.1,0.2,0.1-4.6,0.2-6.4l-4.5,1.6L52.6,18
			c3.7,0.4,11.8,1.7,11.8,1.7l0.7-6.4L58.2,10.1z"/>
		<path fill="#1C1C1C" d="M13.9,43.2c1.3,0,2.3-1,2.3-2.3c0-1.3-1-2.3-2.3-2.3c-1.3,0-2.3,1-2.3,2.3C11.6,42.1,12.6,43.2,13.9,43.2z
			"/>
		<path fill="#1C1C1C" d="M9.9,20.4c0,0,1.7-2.4,5.3-2.6C18.7,17.6,52,19,56,19.5c6.6,0.8,11.7,1.9,14.8,3.4
			C70.8,22.8,21.9,20.7,9.9,20.4z"/>
		<path fill="#AACF9A" d="M15.4,14.6c0.1,0.3,0.4,1,1.1,1c1.5,0,30.2,0.8,31,0.8c0.8,0,1.2-0.5,1.2-0.9L15.4,14.6z"/>
		<path fill="#C1E7AB" d="M15.4,14.6l33.2,0.9l-1.3-1.8l-30.5-1L15.4,14.6z"/>
		<path fill="#D5F7BF" d="M49.6,5.2c0.3-2.6-1.3-4.4-3.6-4.5C43.5,0.6,22.8,0.1,19.8,0c-3.1-0.1-4.3,2.1-4.5,4.3
			c-0.2,2.2-0.9,4.8,3.1,5.6c4,0.8,26.6,1.5,28.7,0.7C49.2,9.8,49.3,7.1,49.6,5.2z"/>
		<path fill="#C1E7AB" d="M16.8,5.5c0.2-2.7,0.9-4.2,2.8-4.1C21.5,1.4,43.9,2,45.4,2.1c1.5,0,3.2,1.2,2.6,4.3
			c-0.6,3.1-0.6,3.4-2.4,3.9c-1.8,0.4-25.7-0.7-26.8-0.7c-1.1,0-1.9-0.5-2-1.3C16.6,7.3,16.8,5.5,16.8,5.5z"/>
		<path fill="#AACF9A" d="M13.1,4.8c0.1-0.7,0.6-1,1.5-1.1C15.2,3.6,16.5,3.6,17,4c0.5,0.4,0.8,3.2,1.2,4.7
			c-0.5,0.8-1.1,3.8-1.1,3.8l-1.6,2.1C15.4,14.6,12.2,10.6,13.1,4.8z"/>
		<path fill="#AACF9A" d="M51.6,5.8c-0.1-0.7-0.6-1-1.5-1.2c-0.6-0.1-1.9-0.2-2.4,0.2c-0.5,0.3-1,3.3-1.4,4.8
			c0.4,0.8,0.9,3.7,0.9,3.7l1.5,2.2C48.7,15.4,52.1,11.6,51.6,5.8z"/>
		<path fill="#C1E7AB" d="M14.7,3.7c-0.1,0-0.1,0-0.2,0c-0.9,0.1-1.4,0.4-1.5,1.1c-0.9,5.7,2.4,9.7,2.4,9.7l1.1-1.4
			C15.5,11.8,14.2,6.9,14.7,3.7z"/>
		<path fill="#C1E7AB" d="M51.6,5.8c-0.1-0.7-0.6-1-1.4-1.2c0.2,2.9-1.3,8-2.5,9.3l1.1,1.5C48.7,15.4,52.1,11.6,51.6,5.8z"/>
		<path fill="#D5F7BF" d="M14.7,4.6c0.5,0,1.8-0.4,2.4-0.5C17.1,4.1,17,4,17,4c-0.5-0.4-1.8-0.4-2.4-0.3c-0.8,0.1-1.3,0.3-1.5,0.9
			C13.6,4.6,14.4,4.7,14.7,4.6z"/>
		<path fill="#D5F7BF" d="M51.5,5.6c-0.2-0.5-0.6-0.8-1.4-0.9c-0.6-0.1-1.9-0.2-2.4,0.2c0,0-0.1,0.1-0.1,0.1
			c0.6,0.2,1.9,0.6,2.4,0.6C50.3,5.6,51,5.6,51.5,5.6z"/>
		<path fill="#D5F7BF" d="M15.3,9.6c-0.3,0.2-0.6,0.3-0.7,0.7c-0.2,0.4,0.1,1.6,0.3,2.1c0.2,0.6,0.8,0.6,1.5,0.6
			c0.7,0,31.5,0.8,32.2,0.8c0.7,0,1.1-0.6,1.1-1.3c0.1-0.6,0.1-1.4,0-1.7c-0.1-0.3-0.4-0.6-0.7-0.7c-0.3-0.1-3-0.9-4.7-1
			c-1.7,0-24.7-0.6-26.2-0.7C17.7,8.7,16.8,8.8,15.3,9.6z"/>
		<path fill="#C1E7AB" d="M14.6,10.3C14.6,10.3,14.6,10.3,14.6,10.3c-0.2,0.4,0.1,1.6,0.3,2.1c0.2,0.6,0.8,0.6,1.5,0.6
			c0.7,0,31.5,0.8,32.2,0.8c0.7,0,1.1-0.6,1.1-1.3c0.1-0.5,0.1-1.1,0-1.4L14.6,10.3z"/>
		<path fill="#1C1C1C" d="M24.8,2.2c0,1.7,0,4.8,0,4.8c0,0.1-0.3-2.9-0.6-4.8l-5.4,1.1l0.1,5.3C20.6,9,25,9.6,25,9.6L28.4,9
			l-0.1-5.6L24.8,2.2z"/>
		<path fill="#1C1C1C" d="M33,5.8c-0.1,1-0.3,2.5-0.4,2.5c0,0.1,0-1.5,0-2.5l-3.4,0.6l-0.1,3.2c1,0.2,3.6,0.6,3.6,0.6l2.1-0.3
			l0.1-3.4L33,5.8z"/>
		<path fill="#282828" d="M16.5,15.6l-0.4,1.3l1.1,0l1.3-1.2L16.5,15.6z"/>
		<path fill="#282828" d="M46.1,16.3l0.3,1.5l-1.1-0.1l-1.2-1.4L46.1,16.3z"/>
		<path fill="#AACF9A" d="M66.4,10.8l0.7-8l-0.5-0.3l-1.5-0.9l-6.6,4.5C58.5,6.1,60.8,9.4,66.4,10.8z"/>
		<path fill="#1C1C1C" d="M64.7,3.8l-5.1,8.7l0.4,0.2L65.1,4L64.7,3.8z"/>
		<path fill="#C1E7AB" d="M66.4,10.8l0.7-8l-0.5-0.3l-1.5-0.9l-6.6,4.5C58.5,6.1,61.6,8,66.4,10.8z"/>
		<path fill="#D5F7BF" d="M66,2.1l-3.7,6.3l-2.5-1.5l5.7-5.1L66,2.1z"/>
		<path fill="#D5F7BF" d="M66.6,2.5l-2.3,7.1l2.1,1.2l0.7-8L66.6,2.5z"/>
	</g>
</g>
</svg>
