<?xml version="1.0" encoding="utf-8"?>
<!-- Generator: Adobe Illustrator 17.1.0, SVG Export Plug-In . SVG Version: 6.00 Build 0)  -->
<!DOCTYPE svg PUBLIC "-//W3C//DTD SVG 1.1//EN" "http://www.w3.org/Graphics/SVG/1.1/DTD/svg11.dtd">
<svg version="1.1" id="Слой_1" xmlns="http://www.w3.org/2000/svg" xmlns:xlink="http://www.w3.org/1999/xlink" x="0px" y="0px"
	 viewBox="0 0 101 20.1" enable-background="new 0 0 101 20.1" xml:space="preserve">
<path fill="#C38E68" d="M10,0.1l3.1,6.6L20,7.7l-5,5.1l1.2,7.2L10,16.7l-6.2,3.4L5,12.9L0,7.7l6.9-1.1L10,0.1z"/>
<path fill="#C38E68" d="M90.5,0.1l3.2,6.6l7.3,1.1l-5.3,5.1l1.2,7.2l-6.5-3.4L84,20.1l1.2-7.2L80,7.7l7.3-1.1L90.5,0.1z"/>
<path fill="#C38E68" d="M70,0l3.1,6.6L80,7.6l-5,5.1l1.2,7.2L70,16.6L63.8,20l1.2-7.2l-5-5.1l6.9-1.1L70,0z"/>
<path fill="#C38E68" d="M30,0l3.1,6.6L40,7.6l-5,5.1l1.2,7.2L30,16.6L23.8,20l1.2-7.2l-5-5.1l6.9-1.1L30,0z"/>
<path fill="#C38E68" d="M50,0l3.1,6.6L60,7.6l-5,5.1l1.2,7.2L50,16.6L43.8,20l1.2-7.2l-5-5.1l6.9-1.1L50,0z"/>
</svg>
