<?xml version="1.0" encoding="utf-8"?>
<!-- Generator: Adobe Illustrator 17.1.0, SVG Export Plug-In . SVG Version: 6.00 Build 0)  -->
<!DOCTYPE svg PUBLIC "-//W3C//DTD SVG 1.1//EN" "http://www.w3.org/Graphics/SVG/1.1/DTD/svg11.dtd">
<svg version="1.1" id="Слой_1" xmlns="http://www.w3.org/2000/svg" xmlns:xlink="http://www.w3.org/1999/xlink" x="0px" y="0px"
	 viewBox="-26.5 -25.5 100 100" enable-background="new -26.5 -25.5 100 100" xml:space="preserve">
<circle fill="#FFFFFF" cx="23.5" cy="24.5" r="50"/>
<path fill="#2A292E" d="M45.3,22.4c-5.7-6.5-3-2.4-3.5-2.1c-0.5,0.4,0.6,1.5,1.7,3.4c0.3,0.5,0.4,1.2,0,1.6
	c-2.8,3.5-6.4,6.2-10.6,7.8c2.2-2.3,3.5-5.3,3.5-8.6c0-3.3-1.3-6.4-3.4-8.6c2.4,0.9,4.6,2.2,6.6,3.8c0.2,0.2,1.8,1.4,2,1.6
	c2,2,0.8,0.9,1.2,0.4c0.4-0.5-0.5-2.7-1-3.1c-0.3-0.2-0.5-0.5-0.8-0.7c-4.9-4-11.1-6.1-17.5-6.1c-8.6,0-16.5,3.8-21.8,10.5
	c-1,1.3-1,3.1,0,4.4c5.3,6.7,13.2,10.5,21.8,10.5c8.6,0,16.5-3.8,21.8-10.5C46.3,25.5,46.3,23.6,45.3,22.4z M3.5,25.4
	c-0.4-0.5-0.4-1.2,0-1.6c2.8-3.5,6.4-6.2,10.6-7.8c-2.2,2.3-3.5,5.3-3.5,8.6s1.3,6.4,3.5,8.6C9.9,31.6,6.2,28.9,3.5,25.4L3.5,25.4z
	 M23.5,35L23.5,35c-5.9,0-10.6-4.7-10.6-10.4s4.8-10.4,10.6-10.4h0c5.8,0,10.6,4.7,10.6,10.4C34.1,30.3,29.3,35,23.5,35L23.5,35z"/>
<path fill="#2A292E" d="M23.5,19.8c-2.7,0-4.9,2.2-4.9,4.8s2.2,4.8,4.9,4.8s4.9-2.2,4.9-4.8S26.2,19.8,23.5,19.8z M23.5,27.1
	c-1.4,0-2.6-1.1-2.6-2.5c0-1.4,1.2-2.5,2.6-2.5s2.6,1.1,2.6,2.5C26,26,24.9,27.1,23.5,27.1z M23.5,0.9c-0.6,0-1.1,0.5-1.2,1.1
	c0,0,0,0,0,0v4.2c0,0.6,0.5,1.1,1.1,1.1c0.6,0,1.1-0.5,1.2-1.1c0,0,0,0,0,0V2C24.6,1.4,24.1,0.9,23.5,0.9
	C23.5,0.9,23.5,0.9,23.5,0.9z M23.5,41.8c-0.6,0-1.1,0.5-1.2,1.1c0,0,0,0,0,0v4.2c0,0.6,0.5,1.1,1.1,1.1c0.6,0,1.1-0.5,1.2-1.1
	c0,0,0,0,0,0v-4.2C24.6,42.3,24.1,41.8,23.5,41.8C23.5,41.8,23.5,41.8,23.5,41.8z M40.5,7.8c-0.5-0.4-1.2-0.4-1.6,0l-2.1,2.1
	c-0.4,0.4-0.5,1.1,0,1.6c0,0,0,0,0,0c0.2,0.2,0.5,0.3,0.8,0.3c0.3,0,0.6-0.1,0.8-0.3l2.1-2.1C41,9,41,8.3,40.5,7.8z M10.2,37.6
	c-0.5-0.4-1.2-0.4-1.6,0l-2.1,2.1c-0.4,0.4-0.5,1.1,0,1.6c0,0,0,0,0,0c0.5,0.4,1.2,0.4,1.6,0l2.1-2.1C10.6,38.8,10.6,38.1,10.2,37.6
	z M10.2,9.9L8,7.8c-0.5-0.4-1.2-0.4-1.6,0C6,8.2,6,9,6.4,9.4c0,0,0,0,0,0l2.1,2.1c0.2,0.2,0.5,0.3,0.8,0.3c0.3,0,0.6-0.1,0.8-0.3
	C10.6,11.1,10.6,10.4,10.2,9.9C10.2,9.9,10.2,9.9,10.2,9.9z M40.5,39.7l-2.1-2.1c-0.5-0.4-1.2-0.4-1.6,0c-0.4,0.4-0.5,1.1,0,1.6
	c0,0,0,0,0,0l2.1,2.1c0.5,0.4,1.2,0.4,1.6,0C41,40.9,41,40.2,40.5,39.7L40.5,39.7z"/>
</svg>
