<?xml version="1.0" encoding="utf-8"?>
<!-- Generator: Adobe Illustrator 17.1.0, SVG Export Plug-In . SVG Version: 6.00 Build 0)  -->
<!DOCTYPE svg PUBLIC "-//W3C//DTD SVG 1.1//EN" "http://www.w3.org/Graphics/SVG/1.1/DTD/svg11.dtd">
<svg version="1.1" id="Слой_1" xmlns="http://www.w3.org/2000/svg" xmlns:xlink="http://www.w3.org/1999/xlink" x="0px" y="0px"
	 viewBox="74.2 5.4 11.6 8.9" enable-background="new 74.2 5.4 11.6 8.9" xml:space="preserve">
<path fill="#565559" d="M84.7,14.3c0.3,0,0.5-0.1,0.6-0.3l-3.3-3.3c-0.1,0-0.1,0.1-0.2,0.2c-0.2,0.2-0.4,0.3-0.6,0.4
	c-0.1,0.1-0.3,0.2-0.6,0.3c-0.3,0.1-0.5,0.2-0.7,0.2l0,0l0,0c-0.2,0-0.4,0-0.7-0.2c-0.3-0.1-0.4-0.2-0.6-0.3
	c-0.1-0.1-0.3-0.2-0.5-0.4c-0.1,0-0.1-0.1-0.2-0.2L74.5,14c0.2,0.2,0.4,0.3,0.6,0.3C75.2,14.3,84.7,14.3,84.7,14.3z"/>
<path fill="#565559" d="M74.8,8.8c-0.2-0.2-0.4-0.4-0.6-0.6v4.9l2.9-2.9C76.5,9.9,75.8,9.4,74.8,8.8z"/>
<path fill="#565559" d="M85.1,8.8c-0.8,0.5-1.6,1.1-2.2,1.5l2.9,2.9V8.2C85.6,8.4,85.4,8.6,85.1,8.8z"/>
<path fill="#565559" d="M84.7,5.4h-9.5c-0.3,0-0.6,0.1-0.7,0.3c-0.2,0.2-0.3,0.5-0.3,0.8c0,0.2,0.1,0.5,0.3,0.8s0.5,0.6,0.7,0.7
	c0.1,0.1,0.6,0.4,1.4,0.9c0.4,0.3,0.7,0.5,1.1,0.7c0.3,0.2,0.5,0.3,0.6,0.4c0,0,0,0,0.1,0.1c0,0,0.1,0.1,0.2,0.1
	c0.1,0.1,0.3,0.2,0.3,0.2s0.2,0.1,0.3,0.2c0.1,0.1,0.3,0.1,0.3,0.2c0.1,0,0.2,0,0.3,0l0,0l0,0c0.1,0,0.2,0,0.3,0s0.2-0.1,0.3-0.2
	c0.1-0.1,0.2-0.1,0.3-0.2c0.1,0,0.2-0.1,0.3-0.2c0.1,0,0.1-0.1,0.2-0.1s0.1,0,0.1-0.1c0.1-0.1,0.3-0.3,0.6-0.4
	c0.7-0.4,1.6-0.9,2.5-1.7c0.3-0.2,0.6-0.5,0.8-0.8s0.3-0.5,0.3-0.9c0-0.3-0.1-0.5-0.3-0.7S84.9,5.4,84.7,5.4z"/>
</svg>
