<svg width="23" height="22" viewBox="0 0 23 22" fill="none" xmlns="http://www.w3.org/2000/svg">
<g opacity="0.3">
<path d="M17.2205 14.4467C16.507 13.7423 15.6163 13.7423 14.9074 14.4467C14.3666 14.9829 13.8258 15.5192 13.2941 16.0645C13.1487 16.2145 13.026 16.2463 12.8488 16.1463C12.4989 15.9554 12.1262 15.8009 11.7899 15.5919C10.2221 14.6058 8.90879 13.3379 7.74542 11.9109C7.16828 11.202 6.65477 10.4431 6.29576 9.58875C6.22305 9.41606 6.23668 9.30245 6.37756 9.16158C6.91834 8.63897 7.44549 8.10273 7.97719 7.56649C8.71792 6.82121 8.71792 5.94869 7.97264 5.19886C7.55001 4.77169 7.12738 4.3536 6.70475 3.92643C6.26849 3.49017 5.83678 3.04936 5.39597 2.61764C4.6825 1.92235 3.7918 1.92235 3.08287 2.62219C2.53754 3.15843 2.01494 3.7083 1.46052 4.23545C0.947005 4.7217 0.687974 5.31702 0.633441 6.01231C0.547098 7.14386 0.824306 8.2118 1.21512 9.25246C2.01494 11.4065 3.23284 13.3197 4.70976 15.0738C6.70476 17.446 9.08602 19.3228 11.8717 20.6771C13.126 21.286 14.4257 21.7541 15.839 21.8314C16.8115 21.8859 17.6568 21.6405 18.3339 20.8816C18.7974 20.3635 19.32 19.8909 19.8108 19.3956C20.5379 18.6594 20.5424 17.7687 19.8199 17.0416C18.9564 16.1736 18.0885 15.3101 17.2205 14.4467Z" fill="white"/>
<path d="M16.3525 10.8248L18.0294 10.5385C17.7658 8.99792 17.0387 7.60279 15.9344 6.49396C14.7665 5.32605 13.2896 4.58986 11.6627 4.36264L11.4264 6.04861C12.6852 6.22584 13.8304 6.79389 14.7347 7.69823C15.5891 8.55257 16.148 9.63414 16.3525 10.8248Z" fill="white"/>
<path d="M18.9746 3.5356C17.0387 1.59969 14.5893 0.377246 11.8854 6.10352e-05L11.649 1.68603C13.9849 2.01323 16.1026 3.07207 17.7749 4.73987C19.3609 6.32586 20.4016 8.32994 20.7787 10.534L22.4556 10.2477C22.0148 7.69372 20.8106 5.37608 18.9746 3.5356Z" fill="white"/>
</g>
</svg>
