<svg width="45" height="31" viewBox="0 0 45 31" fill="none" xmlns="http://www.w3.org/2000/svg">
<path d="M33.5281 19.5854C30.4425 19.5854 27.9323 22.0957 27.9323 25.1813C27.9323 28.2668 30.4425 30.7771 33.5281 30.7771C36.6142 30.7771 39.1239 28.2668 39.1239 25.1813C39.1239 22.0957 36.6136 19.5854 33.5281 19.5854ZM33.5281 27.9792C31.985 27.9792 30.7302 26.7243 30.7302 25.1813C30.7302 23.6382 31.985 22.3834 33.5281 22.3834C35.0711 22.3834 36.326 23.6382 36.326 25.1813C36.326 26.7244 35.0711 27.9792 33.5281 27.9792Z" fill="#2A292E"/>
<path d="M14.4091 19.5854C11.3235 19.5854 8.81329 22.0957 8.81329 25.1813C8.81329 28.2668 11.3235 30.7771 14.4091 30.7771C17.4947 30.7771 20.0049 28.2668 20.0049 25.1813C20.0049 22.0957 17.4947 19.5854 14.4091 19.5854ZM14.4091 27.9792C12.8661 27.9792 11.6112 26.7243 11.6112 25.1813C11.6112 23.6382 12.8661 22.3834 14.4091 22.3834C15.9517 22.3834 17.207 23.6382 17.207 25.1813C17.207 26.7244 15.9521 27.9792 14.4091 27.9792Z" fill="#2A292E"/>
<path d="M37.2963 3.56823C37.0585 3.09586 36.5749 2.79785 36.0461 2.79785H28.6784V5.59576H35.1834L38.9927 13.1724L41.4931 11.9152L37.2963 3.56823Z" fill="#2A292E"/>
<path d="M29.3313 23.8286H18.7459V26.6265H29.3313V23.8286Z" fill="#2A292E"/>
<path d="M10.2122 23.8286H5.36259C4.58987 23.8286 3.96368 24.4549 3.96368 25.2275C3.96368 26.0002 4.58996 26.6264 5.36259 26.6264H10.2123C10.985 26.6264 11.6112 26.0002 11.6112 25.2275C11.6112 24.4548 10.9849 23.8286 10.2122 23.8286Z" fill="#2A292E"/>
<path d="M44.0994 15.2765L41.3478 11.7325C41.0834 11.3911 40.6754 11.1915 40.243 11.1915H30.0773V1.39891C30.0773 0.626187 29.4511 0 28.6784 0H5.36259C4.58987 0 3.96368 0.626274 3.96368 1.39891C3.96368 2.17154 4.58996 2.79782 5.36259 2.79782H27.2794V12.5904C27.2794 13.3631 27.9057 13.9893 28.6783 13.9893H39.558L41.5953 16.6137V23.8286H37.7248C36.9521 23.8286 36.3259 24.4549 36.3259 25.2275C36.3259 26.0002 36.9522 26.6264 37.7248 26.6264H42.9942C43.7669 26.6264 44.3931 26.0001 44.3932 25.2275V16.1345C44.3932 15.8239 44.2897 15.5218 44.0994 15.2765Z" fill="#2A292E"/>
<path d="M10.119 16.7407H3.68382C2.9111 16.7407 2.28491 17.367 2.28491 18.1396C2.28491 18.9124 2.91119 19.5385 3.68382 19.5385H10.1189C10.8917 19.5385 11.5178 18.9123 11.5178 18.1396C11.5179 17.367 10.8917 16.7407 10.119 16.7407Z" fill="#2A292E"/>
<path d="M13.3366 11.2383H1.39891C0.626275 11.2383 0 11.8646 0 12.6373C0 13.41 0.626275 14.0362 1.39891 14.0362H13.3366C14.1093 14.0362 14.7355 13.4099 14.7355 12.6373C14.7355 11.8646 14.1093 11.2383 13.3366 11.2383Z" fill="#2A292E"/>
<path d="M15.6215 5.73535H3.68382C2.9111 5.73535 2.28491 6.36163 2.28491 7.13426C2.28491 7.90698 2.91119 8.53317 3.68382 8.53317H15.6215C16.3943 8.53317 17.0204 7.90689 17.0204 7.13426C17.0205 6.36163 16.3943 5.73535 15.6215 5.73535Z" fill="#2A292E"/>
</svg>
