<?xml version="1.0" encoding="utf-8"?>
<!-- Generator: Adobe Illustrator 17.1.0, SVG Export Plug-In . SVG Version: 6.00 Build 0)  -->
<!DOCTYPE svg PUBLIC "-//W3C//DTD SVG 1.1//EN" "http://www.w3.org/Graphics/SVG/1.1/DTD/svg11.dtd">
<svg version="1.1" id="Слой_1" xmlns="http://www.w3.org/2000/svg" xmlns:xlink="http://www.w3.org/1999/xlink" x="0px" y="0px"
	 viewBox="0 0 45 31" enable-background="new 0 0 45 31" xml:space="preserve">
<path fill="#C38E68" d="M33.5,19.6c-3.1,0-5.6,2.5-5.6,5.6c0,3.1,2.5,5.6,5.6,5.6c3.1,0,5.6-2.5,5.6-5.6
	C39.1,22.1,36.6,19.6,33.5,19.6z M33.5,28c-1.5,0-2.8-1.3-2.8-2.8c0-1.5,1.3-2.8,2.8-2.8c1.5,0,2.8,1.3,2.8,2.8
	C36.3,26.7,35.1,28,33.5,28z"/>
<path fill="#C38E68" d="M14.4,19.6c-3.1,0-5.6,2.5-5.6,5.6c0,3.1,2.5,5.6,5.6,5.6s5.6-2.5,5.6-5.6C20,22.1,17.5,19.6,14.4,19.6z
	 M14.4,28c-1.5,0-2.8-1.3-2.8-2.8c0-1.5,1.3-2.8,2.8-2.8c1.5,0,2.8,1.3,2.8,2.8C17.2,26.7,16,28,14.4,28z"/>
<path fill="#C38E68" d="M37.3,3.6c-0.2-0.5-0.7-0.8-1.3-0.8h-7.4v2.8h6.5l3.8,7.6l2.5-1.3L37.3,3.6z"/>
<path fill="#C38E68" d="M29.3,23.8H18.7v2.8h10.6V23.8z"/>
<path fill="#C38E68" d="M10.2,23.8H5.4c-0.8,0-1.4,0.6-1.4,1.4c0,0.8,0.6,1.4,1.4,1.4h4.8c0.8,0,1.4-0.6,1.4-1.4
	C11.6,24.5,11,23.8,10.2,23.8z"/>
<path fill="#C38E68" d="M44.1,15.3l-2.8-3.5c-0.3-0.3-0.7-0.5-1.1-0.5H30.1V1.4c0-0.8-0.6-1.4-1.4-1.4H5.4C4.6,0,4,0.6,4,1.4
	c0,0.8,0.6,1.4,1.4,1.4h21.9v9.8c0,0.8,0.6,1.4,1.4,1.4h10.9l2,2.6v7.2h-3.9c-0.8,0-1.4,0.6-1.4,1.4c0,0.8,0.6,1.4,1.4,1.4H43
	c0.8,0,1.4-0.6,1.4-1.4v-9.1C44.4,15.8,44.3,15.5,44.1,15.3z"/>
<path fill="#C38E68" d="M10.1,16.7H3.7c-0.8,0-1.4,0.6-1.4,1.4c0,0.8,0.6,1.4,1.4,1.4h6.4c0.8,0,1.4-0.6,1.4-1.4
	C11.5,17.4,10.9,16.7,10.1,16.7z"/>
<path fill="#C38E68" d="M13.3,11.2H1.4c-0.8,0-1.4,0.6-1.4,1.4C0,13.4,0.6,14,1.4,14h11.9c0.8,0,1.4-0.6,1.4-1.4
	C14.7,11.9,14.1,11.2,13.3,11.2z"/>
<path fill="#C38E68" d="M15.6,5.7H3.7c-0.8,0-1.4,0.6-1.4,1.4c0,0.8,0.6,1.4,1.4,1.4h11.9c0.8,0,1.4-0.6,1.4-1.4
	C17,6.4,16.4,5.7,15.6,5.7z"/>
</svg>
