<svg width="33" height="35" viewBox="0 0 33 35" fill="none" xmlns="http://www.w3.org/2000/svg">
<path d="M25.257 23.1265C24.1716 22.0561 22.8166 22.0561 21.7382 23.1265C20.9155 23.9414 20.0929 24.7563 19.284 25.585C19.0628 25.8128 18.8762 25.8612 18.6066 25.7093C18.0742 25.4192 17.5074 25.1844 16.9958 24.8668C14.6108 23.3682 12.6129 21.4415 10.8431 19.2731C9.96515 18.1958 9.18397 17.0426 8.63783 15.7443C8.52722 15.4819 8.54796 15.3093 8.76226 15.0952C9.58493 14.301 10.3868 13.4861 11.1957 12.6713C12.3225 11.5387 12.3225 10.2128 11.1888 9.07339C10.5459 8.42425 9.90293 7.78893 9.26001 7.13979C8.59635 6.47684 7.9396 5.80699 7.26903 5.15094C6.18367 4.09437 4.8287 4.09437 3.75025 5.15785C2.92067 5.97272 2.12567 6.80832 1.28226 7.60938C0.501081 8.34829 0.107033 9.25294 0.0240758 10.3095C-0.107274 12.029 0.314427 13.6519 0.908956 15.2333C2.12567 18.5066 3.97838 21.4139 6.22515 24.0795C9.26001 27.6843 12.8825 30.5364 17.1202 32.5943C19.0283 33.5196 21.0054 34.2309 23.1554 34.3483C24.6348 34.4312 25.9206 34.0583 26.9507 32.905C27.6558 32.1178 28.4508 31.3996 29.1975 30.6468C30.3036 29.5281 30.3105 28.1746 29.2113 27.0697C27.8978 25.7507 26.5774 24.4386 25.257 23.1265Z" fill="#C38E68"/>
<path d="M24.2179 18.5388L26.5854 18.0485C26.2133 15.41 25.1867 13.0206 23.6276 11.1215C21.9787 9.12122 19.8934 7.86035 17.5965 7.47119L17.2628 10.3587C19.0401 10.6623 20.6569 11.6352 21.9338 13.184C23.14 14.6473 23.9292 16.4997 24.2179 18.5388Z" fill="#C38E68"/>
<path d="M27.921 6.05481C25.1877 2.73918 21.7294 0.645514 17.9118 -0.000488281L17.5781 2.88706C20.876 3.44745 23.866 5.26093 26.2271 8.11735C28.4664 10.8337 29.9357 14.266 30.4682 18.0409L32.8358 17.5505C32.2134 13.1764 30.5132 9.20699 27.921 6.05481Z" fill="#C38E68"/>
</svg>
