<svg width="20" height="27" viewBox="0 0 20 27" fill="none" xmlns="http://www.w3.org/2000/svg">
<g opacity="0.3">
<path d="M9.75419 0C4.37566 0 0 4.37742 0 9.75807C0 17.7749 8.78329 25.6026 9.15733 25.932C9.32784 26.0821 9.54097 26.1573 9.75419 26.1573C9.96741 26.1573 10.1805 26.0822 10.3511 25.932C10.725 25.6027 19.5084 17.775 19.5084 9.75807C19.5084 4.37742 15.1327 0 9.75419 0ZM9.75419 7.01869C11.2482 7.01869 12.4637 8.24755 12.4637 9.75807C12.4637 11.2686 11.2482 12.4974 9.75419 12.4974C8.26015 12.4974 7.04467 11.2686 7.04467 9.75807C7.04467 8.24755 8.26015 7.01869 9.75419 7.01869Z" fill="white"/>
</g>
</svg>
