<?xml version="1.0" encoding="utf-8"?>
<!-- Generator: Adobe Illustrator 17.1.0, SVG Export Plug-In . SVG Version: 6.00 Build 0)  -->
<!DOCTYPE svg PUBLIC "-//W3C//DTD SVG 1.1//EN" "http://www.w3.org/Graphics/SVG/1.1/DTD/svg11.dtd">
<svg version="1.1" id="Слой_1" xmlns="http://www.w3.org/2000/svg" xmlns:xlink="http://www.w3.org/1999/xlink" x="0px" y="0px"
	 viewBox="0 0 24.9 19.3" enable-background="new 0 0 24.9 19.3" xml:space="preserve">
<path fill="#565559" d="M22.7,19.3c0.7,0,1.1-0.2,1.4-0.7l-7-7c-0.2,0-0.2,0.2-0.5,0.5c-0.5,0.5-0.9,0.7-1.4,0.9
	c-0.2,0.2-0.7,0.5-1.4,0.7c-0.7,0.2-1.1,0.5-1.6,0.5l0,0l0,0c-0.5,0-0.9,0-1.6-0.5c-0.7-0.2-0.9-0.5-1.4-0.7
	c-0.2-0.2-0.7-0.5-1.1-0.9c-0.2,0-0.2-0.2-0.5-0.5l-7,7C1.1,19,1.6,19.3,2,19.3C2,19.3,22.7,19.3,22.7,19.3z"/>
<path fill="#565559" d="M1.4,7.5C0.9,7,0.5,6.6,0,6.1v10.7l6.3-6.3C5,9.7,3.4,8.6,1.4,7.5z"/>
<path fill="#565559" d="M23.3,7.5c-1.8,1.1-3.4,2.3-4.8,3.2l6.3,6.3V6.1C24.5,6.6,24,7,23.3,7.5z"/>
<path fill="#565559" d="M22.7,0H2.3C1.6,0,0.9,0.2,0.7,0.7C0.2,1.1,0,1.8,0,2.5c0,0.5,0.2,1.1,0.7,1.8s1.1,1.4,1.6,1.6
	c0.2,0.2,1.4,0.9,2.9,2c0.9,0.7,1.6,1.1,2.3,1.6c0.7,0.5,1.1,0.7,1.4,0.9c0,0,0,0,0.2,0.2c0,0,0.2,0.2,0.5,0.2
	c0.2,0.2,0.7,0.5,0.7,0.5s0.5,0.2,0.7,0.5c0.2,0.2,0.7,0.2,0.7,0.5c0.2,0,0.5,0,0.7,0l0,0l0,0c0.2,0,0.5,0,0.7,0
	c0.2,0,0.5-0.2,0.7-0.5c0.2-0.2,0.5-0.2,0.7-0.5c0.2,0,0.5-0.2,0.7-0.5c0.2,0,0.2-0.2,0.5-0.2s0.2,0,0.2-0.2
	c0.2-0.2,0.7-0.7,1.4-0.9c1.6-0.9,3.4-2,5.4-3.6c0.7-0.5,1.4-1.1,1.8-1.8s0.7-1.1,0.7-2c0-0.7-0.2-1.1-0.7-1.6C23.8,0,23.1,0,22.7,0
	z"/>
</svg>
